<svg width="192" height="192" viewBox="0 0 192 192" xmlns="http://www.w3.org/2000/svg" xmlns:xlink="http://www.w3.org/1999/xlink"><title>icon</title><defs><circle id="a" cx="96" cy="96" r="96"/><circle id="c" cx="96" cy="96" r="96"/><path d="M124.8 28.608l53.568 14.784c6.144 2.112 10.944 6.72 13.632 12.672V74.88H0V56.064c2.496-5.952 7.488-10.56 13.632-12.672L67.2 28.608V0h57.6v28.608z" id="e"/><path d="M124.8 28.608l53.568 14.784c6.144 2.112 10.944 6.72 13.632 12.672V74.88H0V56.064c2.496-5.952 7.488-10.56 13.632-12.672L67.2 28.608V0h57.6v28.608z" id="g"/></defs><g fill="none" fill-rule="evenodd"><circle fill="#FFF" cx="96" cy="96" r="96"/><mask id="b" fill="#fff"><use xlink:href="#a"/></mask><path d="M124.8 145.728l53.568 14.784c6.144 2.112 10.944 6.72 13.632 12.672V192H0v-18.816c2.496-5.952 7.488-10.56 13.632-12.672L67.2 145.728V117.12h57.6v28.608z" fill="#E6C19C" mask="url(#b)"/><mask id="d" fill="#fff"><use xlink:href="#c"/></mask><g mask="url(#d)"><g transform="translate(0 117.12)"><mask id="f" fill="#fff"><use xlink:href="#e"/></mask><path d="M96 32.64c-3.264 0-7.488-.768-10.368-2.112-3.264-1.728-15.36-11.712-19.584-15.936-5.376-5.76-8.064-13.056-8.832-25.536-.768-12.48-4.032-57.024-4.032-67.2 0-14.4 10.944-36.864 42.432-36.864H96c31.68.192 42.432 22.464 42.432 36.864 0 10.176-3.264 54.72-4.032 67.2-.768 12.48-3.456 19.584-8.832 25.536-4.032 4.416-16.128 14.208-19.584 15.936-2.496 1.344-6.72 2.112-9.984 2.112z" fill="#D4B08C" mask="url(#f)"/></g><g transform="translate(0 117.12)"><mask id="h" fill="#fff"><use xlink:href="#g"/></mask><path d="M0-5.76h192v80.64H0V-5.76zm96 57.6c21.12 0 38.4-12.096 38.4-26.88 0-14.784-17.28-26.88-38.4-26.88-21.12 0-38.4 12.096-38.4 26.88 0 14.784 17.28 26.88 38.4 26.88z" fill="#249CF2" mask="url(#h)"/></g></g><path d="M96 142.08c-2.88 0-6.72-.576-9.216-1.728-3.072-1.344-13.824-8.832-17.472-12.096-4.8-4.416-7.296-9.792-8.064-19.2C60.48 99.648 57.6 66.24 57.6 58.56c0-10.944 9.792-27.84 38.4-27.84 28.608 0 38.4 16.896 38.4 27.84 0 7.68-2.88 41.28-3.648 50.688-.768 9.408-3.072 14.784-8.064 19.2-3.648 3.264-14.592 10.752-17.472 12.096-2.496.96-6.336 1.536-9.216 1.536z" fill="#F2CEA5"/><path d="M130.56 79.68s3.072.768 8.64-1.152c.768-3.456 2.88-13.44 2.88-19.008s-.576-10.944-3.648-15.552c-3.456-4.992-10.752-7.872-14.592-7.872-4.416 2.688-14.784 8.832-18.048 12.48-1.728 1.92.768 3.456.768 3.456s2.304-.96 3.264-1.152c4.8-1.344 12.096-.576 16.128 3.072 4.608 4.224 4.608 14.208 4.8 16.896-.192 2.496-.192 8.832-.192 8.832z" fill="#D98C21"/><path d="M52.8 78.72c5.568 1.92 8.64 6.528 8.64 6.528V73.152c0-3.072 0-12.48 4.608-18.624 6.144-8.256 16.128-10.176 21.312-6.72 2.688 1.728 11.712 10.56 21.312 3.264 5.76-4.416 16.32-14.4 16.32-14.4s-5.568-17.088-30.912-15.168c-10.752.96-22.656-1.728-22.656-1.728s-.192 4.8 1.728 7.296c-15.936 4.416-21.12 15.936-22.656 24.768a23.832 23.832 0 0 0-.576 5.184v2.688c0 5.568 2.112 15.36 2.88 19.008z" fill="#E6A422"/><path d="M109.44 115.2H82.56c-.768 0-1.152.768-.768 1.536 2.496 4.416 7.104 6.72 12.864 7.104 5.952.384 12.48-2.496 15.552-7.104.384-.576 0-1.536-.768-1.536z" fill="#A3705F"/><circle fill="#262626" cx="113.28" cy="86.4" r="3.84"/><ellipse fill="#262626" cx="78.72" cy="86.4" rx="3.84" ry="3.84"/><path d="M67.2 80.64s2.112-5.76 11.712-5.76c6.528 0 10.368 2.88 12.288 5.76" stroke="#CC9872" stroke-width="2"/><path d="M124.992 80.64s-2.112-5.76-11.712-5.76c-9.216 0-13.44 5.76-13.44 9.6v17.28" stroke="#BB8660" stroke-width="2"/><path d="M140.16 71.04c0-24.384-19.776-44.16-44.16-44.16-24.384 0-44.16 19.776-44.16 44.16V86.4h5.76V71.04c-.192-21.12 17.088-38.592 38.4-38.4 21.312-.192 38.592 17.28 38.4 38.4v17.28h5.76V71.04z" fill="#6B363E"/><path d="M136.32 105.984c-.192 25.152-24.96 26.496-24.96 26.496" stroke="#6B363E" stroke-width="2"/><path d="M100.416 130.368l11.136-3.072c2.112-.576 4.224.576 4.608 2.688l.96 3.648c.576 2.112-.576 4.224-2.688 4.608l-11.136 3.072c-2.112.576-4.224-.576-4.608-2.688l-.96-3.648c-.576-1.92.768-4.032 2.688-4.608z" fill="#452228"/><path d="M61.44 111.36c-9.792-.96-17.28-9.216-17.28-19.2s7.488-18.048 17.28-19.2v38.4zm69.12 0c9.792-.96 17.28-9.216 17.28-19.2s-7.488-18.048-17.28-19.2v38.4z" fill="#6B363E"/><path d="M130.56 111.36c9.792-.96 17.28-9.216 17.28-19.2s-7.488-18.048-17.28-19.2v38.4z"/></g></svg>