<svg width="192" height="192" viewBox="0 0 192 192" xmlns="http://www.w3.org/2000/svg" xmlns:xlink="http://www.w3.org/1999/xlink"><title>icon</title><defs><circle id="a" cx="96" cy="96" r="96"/><circle id="c" cx="96" cy="96" r="96"/><circle id="e" cx="96" cy="96" r="96"/><circle id="g" cx="96" cy="96" r="96"/><path d="M120.96 20.928c0 7.68 9.024 9.984 13.632 11.136 14.592 3.84 43.776 11.328 43.776 11.328 6.144 2.112 10.944 6.72 13.632 12.672V74.88H0V56.064c2.496-5.952 7.488-10.56 13.632-12.672 0 0 29.184-7.488 43.776-11.328 4.608-1.152 13.632-3.456 13.632-11.136V0h49.92v20.928z" id="i"/><path d="M120.96 20.928c0 7.68 9.024 9.984 13.632 11.136 14.592 3.84 43.776 11.328 43.776 11.328 6.144 2.112 10.944 6.72 13.632 12.672V74.88H0V56.064c2.496-5.952 7.488-10.56 13.632-12.672 0 0 29.184-7.488 43.776-11.328 4.608-1.152 13.632-3.456 13.632-11.136V0h49.92v20.928z" id="k"/><path d="M120.96 20.928c0 7.68 9.024 9.984 13.632 11.136 14.592 3.84 43.776 11.328 43.776 11.328 6.144 2.112 10.944 6.72 13.632 12.672V74.88H0V56.064c2.496-5.952 7.488-10.56 13.632-12.672 0 0 29.184-7.488 43.776-11.328 4.608-1.152 13.632-3.456 13.632-11.136V0h49.92v20.928z" id="m"/><path d="M0 0h192v80.64H0V0zm96 59.52c23.232 0 39.936-27.072 39.936-27.072S116.928 1.92 96 1.92 56.064 32.448 56.064 32.448 72.768 59.52 96 59.52z" id="o"/><path d="M0 65.856c4.608-1.728 13.824-6.72 23.04-22.848 13.056-23.04 33.024-12.48 39.36-4.992.768.768 1.728.384 1.728.384s16.512-7.104 23.04 7.296c4.8 10.56 7.488 13.632 12.48 16.896V47.424C99.84 17.664 81.6 17.28 80.832 17.28c-.768 0-1.344 0-1.728-1.152-1.728-5.568-19.584-24-49.536-12.288S0 57.6 0 57.6v8.256z" id="q"/></defs><g fill="none" fill-rule="evenodd"><circle fill="#FFF" cx="96" cy="96" r="96"/><mask id="b" fill="#fff"><use xlink:href="#a"/></mask><path fill="#D98C21" mask="url(#b)" d="M46.08 78.72h59.52v82.56H46.08z"/><mask id="d" fill="#fff"><use xlink:href="#c"/></mask><path fill="#CC751F" mask="url(#d)" d="M86.4 71.04h59.52v90.24H86.4z"/><mask id="f" fill="#fff"><use xlink:href="#e"/></mask><path d="M120.96 138.048c0 7.68 9.024 9.984 13.632 11.136 14.592 3.84 43.776 11.328 43.776 11.328 6.144 2.112 10.944 6.72 13.632 12.672V192H0v-18.816c2.496-5.952 7.488-10.56 13.632-12.672 0 0 29.184-7.488 43.776-11.328 4.608-1.152 13.632-3.456 13.632-11.136V117.12h49.92v20.928z" fill="#E6C19C" mask="url(#f)"/><mask id="h" fill="#fff"><use xlink:href="#g"/></mask><g mask="url(#h)"><g transform="translate(0 117.12)"><mask id="j" fill="#fff"><use xlink:href="#i"/></mask><path d="M96.384-96h.384c6.336 0 15.744.384 21.888 3.84 6.336 3.648 14.016 10.752 16.32 23.232 4.608 26.304-4.032 67.968-12.096 81.408-7.68 12.864-18.816 17.664-25.92 18.048h-1.152c-7.104-.384-18.24-5.184-25.92-18.048C61.824-.96 53.184-42.624 57.792-68.928c2.304-12.48 9.984-19.584 16.32-23.232C80.256-95.616 89.664-96 96-96h.384z" fill="#D4B08C" mask="url(#j)"/></g><g transform="translate(0 117.12)"><mask id="l" fill="#fff"><use xlink:href="#k"/></mask><path d="M0-5.76h192v80.64H0V-5.76zm96 59.52c23.232 0 39.936-27.072 39.936-27.072S116.928-3.84 96-3.84 56.064 26.688 56.064 26.688 72.768 53.76 96 53.76z" fill="#6B363E" mask="url(#l)"/></g><g transform="translate(0 117.12)"><mask id="n" fill="#fff"><use xlink:href="#m"/></mask><g mask="url(#n)"><g transform="translate(0 -5.76)"><mask id="p" fill="#fff"><use xlink:href="#o"/></mask><path d="M139.008 37.824c-2.496 19.2-17.856 33.216-17.856 33.216s-15.744-13.44-19.584-14.592c24.384-14.592 32.832-23.04 32.832-23.04s6.912-14.784 4.608 4.416zm-85.824 0C55.68 57.216 71.04 71.04 71.04 71.04S86.784 57.6 90.624 56.448c-24.384-14.592-32.832-23.04-32.832-23.04s-6.912-14.784-4.608 4.416z" fill="#FFF" mask="url(#p)"/></g></g></g></g><path d="M96 30.72c36.672 0 39.744 26.496 39.936 28.992 2.112 22.848-5.76 53.952-13.056 64.704-7.68 11.328-18.816 15.552-25.92 15.936h-.576L96 140.16c-7.296-.384-18.432-4.608-26.112-15.936-7.296-10.752-15.168-41.856-13.056-64.896C57.024 57.024 59.328 30.72 96 30.72z" fill="#F2CEA5"/><path d="M87.936 117.12c-.384 0-.768.768-.576 1.344 1.728 4.032 4.416 6.336 8.064 6.528 3.84.384 7.872-2.304 9.984-6.528.192-.576 0-1.344-.576-1.344H87.936z" fill="#A3705F"/><circle fill="#262626" cx="113.28" cy="86.4" r="3.84"/><ellipse fill="#262626" cx="78.72" cy="86.4" rx="3.84" ry="3.84"/><path d="M68.16 77.184s2.688-2.304 9.408-2.304c4.8 0 9.408 1.344 12.288 4.992" stroke="#CC9872" stroke-width="2"/><path d="M123.648 77.184s-2.688-2.304-9.408-2.304c-6.72 0-13.248 2.88-14.784 10.944-1.536 8.064.576 14.784 4.032 19.392" stroke="#BB8660" stroke-width="2"/><path d="M46.08 86.976c4.608-1.728 13.824-6.72 23.04-22.848 13.056-23.04 33.024-12.48 39.36-4.992.768.768 1.728.384 1.728.384s16.512-7.104 23.04 7.296c4.8 10.56 7.488 13.632 12.48 16.896V68.544c.192-29.76-18.048-30.144-18.816-30.144-.768 0-1.344 0-1.728-1.152-1.728-5.568-19.584-24-49.536-12.288S46.08 78.72 46.08 78.72v8.256z" fill="#E6A422"/><g transform="translate(46.08 21.12)"><mask id="r" fill="#fff"><use xlink:href="#q"/></mask><path d="M62.976 39.552s5.76-14.4 17.28-23.232c11.52-8.832 21.504 14.208 21.504 14.208l.576 37.632-39.36-28.608z" fill="#D98C21" mask="url(#r)"/></g></g></svg>