<svg width="192" height="192" viewBox="0 0 192 192" xmlns="http://www.w3.org/2000/svg" xmlns:xlink="http://www.w3.org/1999/xlink"><title>icon</title><defs><circle id="a" cx="96" cy="96" r="96"/><path d="M74.728 17.214l32.043 8.857c3.675 1.265 6.546 4.026 8.154 7.592v11.272H.075V33.663c1.493-3.566 4.479-6.327 8.154-7.592l32.043-8.857V.074h34.456v17.14z" id="c"/><path d="M23.105 66.85c-1.723 0-4.02-.346-5.513-1.036-1.838-.805-8.27-5.29-10.452-7.246-2.87-2.646-4.364-5.867-4.823-11.503C1.857 41.43.135 21.3.135 16.698.135 10.142 5.992.02 22.99.02s22.855 10.122 22.855 16.678c0 4.602-1.723 24.731-2.182 30.367-.46 5.636-1.838 8.857-4.824 11.503-2.182 1.955-8.728 6.441-10.451 7.246-1.264.69-3.56 1.036-5.283 1.036z" id="e"/><path d="M72.34 17.433l8.106 2.043c8.678 2.27 26.028 6.693 26.028 6.693 3.65 1.25 6.504 3.973 8.105 7.49v13.392H.424V33.659c1.484-3.517 4.452-6.24 8.105-7.49 0 0 17.35-4.424 26.028-6.693 2.739-.681 8.105-2.043 8.105-2.043V.524h29.681v16.91h-.002z" id="g"/><path d="M72.34 17.433l8.106 2.043c8.678 2.27 26.028 6.693 26.028 6.693 3.65 1.25 6.504 3.973 8.105 7.49v13.392H.424V33.659c1.484-3.517 4.452-6.24 8.105-7.49 0 0 17.35-4.424 26.028-6.693 2.739-.681 8.105-2.043 8.105-2.043V.524h29.681v16.91h-.002z" id="i"/><path d="M72.34 17.433l8.106 2.043c8.678 2.27 26.028 6.693 26.028 6.693 3.65 1.25 6.504 3.973 8.105 7.49v13.392H.424V33.659c1.484-3.517 4.452-6.24 8.105-7.49 0 0 17.35-4.424 26.028-6.693 2.739-.681 8.105-2.043 8.105-2.043V.524h29.681v16.91h-.002z" id="k"/><path id="m" d="M.389.928h35.386v5.676H.389z"/><path id="o" d="M.389.928h35.386v5.676H.389z"/><circle id="q" cx="96" cy="96" r="96"/><circle id="s" cx="96" cy="96" r="96"/><path d="M124.8 28.608l53.568 14.784c6.144 2.112 10.944 6.72 13.632 12.672V74.88H0V56.064c2.496-5.952 7.488-10.56 13.632-12.672L67.2 28.608V0h57.6v28.608z" id="u"/><path d="M124.8 28.608l53.568 14.784c6.144 2.112 10.944 6.72 13.632 12.672V74.88H0V56.064c2.496-5.952 7.488-10.56 13.632-12.672L67.2 28.608V0h57.6v28.608z" id="w"/><path d="M124.8 28.608l53.568 14.784c6.144 2.112 10.944 6.72 13.632 12.672V74.88H0V56.064c2.496-5.952 7.488-10.56 13.632-12.672L67.2 28.608V0h57.6v28.608z" id="y"/><path d="M124.8 28.608l53.568 14.784c6.144 2.112 10.944 6.72 13.632 12.672V74.88H0V56.064c2.496-5.952 7.488-10.56 13.632-12.672L67.2 28.608V0h57.6v28.608z" id="A"/><path d="M124.8 28.608l53.568 14.784c6.144 2.112 10.944 6.72 13.632 12.672V74.88H0V56.064c2.496-5.952 7.488-10.56 13.632-12.672L67.2 28.608V0h57.6v28.608z" id="C"/></defs><g fill="none" fill-rule="evenodd"><circle fill="#FFF" cx="96" cy="96" r="96"/><mask id="b" fill="#fff"><use xlink:href="#a"/></mask><use fill="#FFF" xlink:href="#a"/><g mask="url(#b)"><path d="M181.728 136.383l32.043 8.857c3.675 1.265 6.546 4.026 8.154 7.592v11.273h-114.85v-11.273c1.493-3.566 4.479-6.326 8.154-7.592l32.043-8.857v-17.139h34.456v17.14z" fill="#D4B08C"/><g transform="translate(107 119.17)"><mask id="d" fill="#fff"><use xlink:href="#c"/></mask><path fill="#1E1F24" mask="url(#d)" d="M57.73 21.93h-8.27l-9.188-4.716L.075 16.178v28.757h115.31V16.178H71.512l-5.513 5.752z"/></g><path d="M164.5 134.198c-1.723 0-4.02-.346-5.513-1.036-1.837-.805-8.27-5.29-10.451-7.246-2.871-2.646-4.365-5.867-4.824-11.503-.46-5.636-2.182-25.766-2.182-30.367 0-6.556 5.857-16.678 22.855-16.678S187.24 77.49 187.24 84.046c0 4.601-1.722 24.731-2.182 30.367-.459 5.636-1.837 8.857-4.823 11.503-2.183 1.955-8.73 6.441-10.452 7.246-1.263.69-3.56 1.036-5.283 1.036z" fill="#F2CEA5"/><g transform="translate(141.395 67.348)"><mask id="f" fill="#fff"><use xlink:href="#e"/></mask><path d="M35.738 51.896c-1.148-1.38-3.445-3.335-7.235-3.45-3.79-.116-2.872 2.185-5.398 2.3h-.23c-2.412-.115-1.493-2.3-5.398-2.3-3.905 0-6.202 1.955-7.236 3.45L1.053 39.244V70.3h43.873V39.244l-9.188 12.652zm-8.04 8.052c-1.263-.115-1.952-.46-2.296-.92 0-.69-.46-1.495-2.412-1.38-1.953-.115-2.297.69-2.412 1.38-.344.46-1.034.92-2.297.92-4.364-.23-5.742-3.106-5.742-5.176 0-2.07 1.722-2.876 5.742-2.876 2.871 0 1.953 1.036 4.594 1.15h.23c2.642 0 1.723-1.15 4.594-1.15 4.02 0 5.743.805 5.743 2.876 0 2.07-1.379 4.946-5.743 5.176z" fill="#2D2E35" mask="url(#f)"/></g><path d="M167.946 123.846h-6.892c-.689 0-1.148-.46-1.148-1.151 0-.69.46-1.15 1.148-1.15h6.892c.689 0 1.148.46 1.148 1.15s-.46 1.15-1.148 1.15z" fill="#A3705F"/><path d="M160.595 99.115c-.574-.92-2.182-2.876-6.317-2.876-4.709 0-5.857 2.646-5.857 2.761l-2.182-.805c.115-.115 1.608-4.141 8.04-4.141 5.282 0 7.58 2.76 8.269 4.026l-1.953 1.035z" fill="#CC9872"/><path d="M174.837 103.14a2.306 2.306 0 0 0 2.297-2.3c0-1.265-1.034-2.3-2.297-2.3a2.305 2.305 0 0 0-2.297 2.3c0 1.265 1.033 2.3 2.297 2.3zm-20.674 0a2.306 2.306 0 0 0 2.297-2.3c0-1.265-1.033-2.3-2.297-2.3a2.305 2.305 0 0 0-2.297 2.3c0 1.265 1.034 2.3 2.297 2.3z" fill="#262626"/><path d="M165.649 111.193V100.84c0-2.875 2.87-6.786 9.188-6.901 6.316 0 7.924 4.026 8.04 4.14l-2.183.806c0-.115-1.149-2.646-5.857-2.76-4.71 0-6.891 2.76-6.891 4.6v10.353l-2.297.115z" fill="#BB8660"/><path d="M147.387 134.658l1.953-3.22 14.815 6.786 15.046-5.637 2.526 2.53v7.477s-12.403 12.193-17.227 12.308c-4.824 0-17.113-13.228-17.113-13.228v-7.016z" fill="#D4B08C"/><path d="M181.728 136.383v5.866c0 16.22-9.763 22.66-9.763 22.66H157.84s-10.567-7.706-10.567-21.51v-7.016c1.149 1.15 2.987 10.468 17.573 10.468s15.734-9.318 16.883-10.468z" fill="#6B363E"/><path fill="#E1BC90" d="M154.278 83.586h20.558v2.301h-20.558zm4.594 4.601h11.37v2.301h-11.37z"/><path d="M186.436 100.84s.115-15.068-6.316-23.35c-1.493 1.38-4.02 2.53-7.466 2.53-3.445 0-6.776-1.265-10.68-3.22-3.906-1.956-6.088-3.566-9.533-3.911-2.297.805-9.763 6.786-9.763 17.139 0 10.352.23 14.148.23 14.148s-4.824-6.557-4.824-16.449c0-9.892 5.513-17.024 12.29-17.254 2.756-2.53 8.039-4.37 13.667-4.37 5.627 0 16.653 2.76 21.247 10.582 6.776 11.387 1.148 24.155 1.148 24.155z" fill="#2D2E35"/></g><g mask="url(#b)"><path d="M44.34 140.644l8.106 2.042c8.678 2.27 26.028 6.693 26.028 6.693 3.65 1.25 6.504 3.973 8.105 7.49v13.392H-27.576V156.87c1.484-3.518 4.452-6.24 8.105-7.49 0 0 17.35-4.424 26.028-6.694 2.739-.68 8.105-2.042 8.105-2.042v-16.909h29.681v16.91h-.002z" fill="#E6C19C"/><g transform="translate(-28 123.21)"><mask id="h" fill="#fff"><use xlink:href="#g"/></mask><path d="M57.73-53.945h.226c3.767 0 9.362.228 13.012 2.27 3.768 2.156 8.335 6.354 9.707 13.733 2.739 15.548-2.395 40.172-7.191 48.115-4.567 7.605-11.185 10.441-15.411 10.67h-.688c-4.223-.229-10.844-3.065-15.41-10.67-4.796-7.943-9.933-32.567-7.192-48.115 1.37-7.376 5.937-11.577 9.704-13.733 3.653-2.042 9.248-2.27 13.013-2.27h.23z" fill="#D4B08C" mask="url(#h)"/></g><g transform="translate(-28 123.21)"><mask id="j" fill="#fff"><use xlink:href="#i"/></mask><path d="M.424-.61h114.155v47.663H.424V-.609zM57.5 35.705c15.41-.228 23.974-17.023 23.974-17.023S70.057-.61 57.5-.61 33.526 18.684 33.526 18.684s8.563 17.248 23.974 17.02z" fill="#8EBF1D" mask="url(#j)"/></g><g transform="translate(-28 123.21)"><mask id="l" fill="#fff"><use xlink:href="#k"/></mask><path d="M57.5-6.283c-14.955 0-28.424 22.922-28.424 22.922S39.238 37.065 57.5 36.84c18.264-.23 28.424-20.201 28.424-20.201S72.455-6.283 57.5-6.283zm0 38.583c-13.812 0-23.745-16-23.745-16S44.943-1.743 57.5-1.743c12.555 0 23.745 18.043 23.745 18.043s-9.93 16-23.745 16z" fill="#70A619" mask="url(#l)"/></g><path d="M29.274 79.479c21.805 0 23.63 14.525 23.747 16 1.255 13.506-3.426 28.484-7.764 34.838-4.567 6.696-11.188 9.193-15.41 9.419h-.572c-4.337-.226-10.958-2.72-15.525-9.419-4.338-6.354-9.02-21.335-7.764-34.952.112-1.472 1.481-15.886 23.287-15.886z" fill="#F2CEA5"/><path d="M29.615 127.139c-4.109 0-6.392-1.134-6.392-1.134-.341 0-.456.453-.341.795.34 2.042 2.624 4.881 6.85 4.881 4.22 0 6.392-2.837 6.735-4.881.115-.342 0-.795-.343-.795-.232.003-2.513 1.134-6.51 1.134z" fill="#A3705F"/><g transform="translate(10.85 105.784)"><mask id="n" fill="#fff"><use xlink:href="#m"/></mask><ellipse fill="#291F21" mask="url(#n)" cx="28.925" cy="5.471" rx="2.283" ry="2.27"/></g><g transform="translate(10.85 105.784)"><mask id="p" fill="#fff"><use xlink:href="#o"/></mask><ellipse fill="#291F21" mask="url(#p)" cx="8.379" cy="5.471" rx="2.283" ry="2.27"/></g><path d="M13.519 107.168a5.82 5.82 0 0 1 4.908-2.723c2.853 0 5.707.68 7.42 2.381" stroke="#CC9872" stroke-width="2"/><path d="M45.255 107.168a5.82 5.82 0 0 0-4.91-2.723c-3.995 0-7.877 1.248-8.79 4.879-.912 3.631-2.055 9.871-2.055 9.871" stroke="#BB8660" stroke-width="2"/><path d="M52.446 109.893s.799-3.859 2.968-4.995c1.484-6.24 1.598-8.396 1.598-9.419 0-3.292-.343-6.468-2.168-9.193-2.055-2.95-6.39-4.651-8.676-4.651-2.624 1.589-8.79 5.22-10.73 7.376-1.028 1.134.457 2.042.457 2.042s5.254-6.81 5.595-3.064c.343 3.745 11.187 13.164 11.187 13.164v8.738h-.231v.002z" fill="#452228"/><path d="M2.675 98.316c0 1.134.8 5.334 1.37 6.924 1.825.794 2.624 4.992 2.624 4.992v-9.077c6.85-1.928 14.611-5.787 19.064-11.688 1.37 4.084-.115 6.923-.115 6.923s7.647.226 13.357-4.084c3.423-2.609 7.534-10.44 7.534-10.44s-2.054-8.966-17.124-7.719c-6.391.567-9.474 4.426-19.863 3.404 0 0 1.026 2.497 2.17 3.973-4.565 2.042-9.017 7.826-9.017 16.792z" fill="#6B363E"/></g><mask id="r" fill="#fff"><use xlink:href="#q"/></mask><path d="M124.8 145.728l53.568 14.784c6.144 2.112 10.944 6.72 13.632 12.672V192H0v-18.816c2.496-5.952 7.488-10.56 13.632-12.672L67.2 145.728V117.12h57.6v28.608z" fill="#D4B08C" mask="url(#r)"/><mask id="t" fill="#fff"><use xlink:href="#s"/></mask><g mask="url(#t)"><g transform="translate(0 117.12)"><mask id="v" fill="#fff"><use xlink:href="#u"/></mask><path fill="#1E1E23" mask="url(#v)" d="M96.384 36.48H82.56l-9.216-9.6H0v48h192.576v-48h-73.152l-9.216 9.6z"/></g><g transform="translate(0 117.12)"><mask id="x" fill="#fff"><use xlink:href="#w"/></mask><path fill="#C1CAD4" mask="url(#x)" d="M96 36.48h1.92l28.224-14.784-11.136 55.488L96 75.072l-19.008 2.112-11.136-55.488L94.08 36.48z"/></g><g transform="translate(0 117.12)"><mask id="z" fill="#fff"><use xlink:href="#y"/></mask><path fill="#216DD9" mask="url(#z)" d="M91.2 53.76h9.6l7.68 23.04H83.52z"/></g><g transform="translate(0 117.12)"><mask id="B" fill="#fff"><use xlink:href="#A"/></mask><path fill="#249CF2" mask="url(#B)" d="M75.84 36.48h40.32L100.8 53.76h-9.6z"/></g><g transform="translate(0 117.12)"><mask id="D" fill="#fff"><use xlink:href="#C"/></mask><path d="M125.76 17.28l-27.648 19.2 20.736 21.12 7.872-38.4-.96-1.92zm-59.52 0l27.648 19.2L73.152 57.6 65.28 19.2l.96-1.92z" fill="#FFF" mask="url(#D)"/></g></g><path d="M96 142.08c-2.88 0-6.72-.576-9.216-1.728-3.072-1.344-13.824-8.832-17.472-12.096-4.8-4.416-7.296-9.792-8.064-19.2C60.48 99.648 57.6 66.24 57.6 58.56c0-10.944 9.792-27.84 38.4-27.84 28.608 0 38.4 16.896 38.4 27.84 0 7.68-2.88 41.28-3.648 50.688-.768 9.408-3.072 14.784-8.064 19.2-3.648 3.264-14.592 10.752-17.472 12.096-2.496.96-6.336 1.536-9.216 1.536z" fill="#F2CEA5"/><path d="M109.44 115.2H82.56c-.768 0-1.152.768-.768 1.536 2.496 4.416 7.104 6.72 12.864 7.104 5.952.384 12.48-2.496 15.552-7.104.384-.576 0-1.536-.768-1.536z" fill="#A3705F"/><circle fill="#262626" cx="113.28" cy="86.4" r="3.84"/><ellipse fill="#262626" cx="78.72" cy="86.4" rx="3.84" ry="3.84"/><path d="M67.2 80.64s2.112-5.76 11.712-5.76c6.528 0 10.368 2.88 12.288 5.76" stroke="#CC9872" stroke-width="2"/><path d="M124.992 80.64s-2.112-5.76-11.712-5.76c-9.216 0-13.44 5.76-13.44 9.6v17.28" stroke="#BB8660" stroke-width="2"/><path d="M132.096 92.544s1.536-12.096 7.104-13.824c.768-3.456 2.88-13.44 2.88-19.008s-.576-10.944-3.648-15.552c-3.456-4.992-10.752-7.872-14.592-7.872-4.416 2.688-14.784 8.832-18.048 12.48-1.728 1.92.768 3.456.768 3.456s2.304-.96 3.264-1.152c4.8-1.344 15.36-2.304 18.624 2.496 4.032 5.76 4.032 22.656 4.032 25.152 0 2.304-.384 13.824-.384 13.824z" fill="#D98C21"/><path d="M52.8 78.72c5.568 1.92 7.104 13.824 7.104 13.824s-.384-11.52-.384-13.824c0-3.072.384-17.472 6.528-24.384 6.912-7.68 16.128-10.176 21.312-6.72 2.688 1.728 11.712 10.56 21.312 3.264 5.76-4.416 16.32-14.4 16.32-14.4s-5.568-17.088-30.912-15.168c-10.752.96-22.656-1.728-22.656-1.728s-.192 4.8 1.728 7.296c-15.936 4.608-21.12 16.128-22.656 24.96a23.832 23.832 0 0 0-.576 5.184v2.688c0 5.568 2.112 15.36 2.88 19.008z" fill="#E6A422"/></g></svg>