<?xml version="1.0" standalone="no"?>
<!DOCTYPE svg PUBLIC "-//W3C//DTD SVG 1.1//EN" "http://www.w3.org/Graphics/SVG/1.1/DTD/svg11.dtd">
<!--Generator: Xara Designer (www.xara.com), SVG filter version: 6.0.0.4-->
<svg stroke-width="0.501" stroke-linejoin="bevel" fill-rule="evenodd" xmlns:xlink="http://www.w3.org/1999/xlink" xmlns="http://www.w3.org/2000/svg" version="1.1" overflow="visible" width="12pt" height="10.5pt" viewBox="0 0 12 10.5">
 <defs>
	</defs>
 <g id="Document" fill="none" stroke="black" font-family="Times New Roman" font-size="16" transform="scale(1 -1)">
  <g id="Spread" transform="translate(0 -10.5)">
   <g id="Layer 1">
    <path d="M 0.001,1.696 L 0.001,8.803 C 0.001,9.739 0.761,10.499 1.697,10.499 L 10.304,10.499 C 11.24,10.499 12,9.739 12,8.803 L 12,1.696 C 12,0.76 11.24,0 10.304,0 L 1.697,0 C 0.761,0 0.001,0.76 0.001,1.696 Z M 11.25,1.696 L 11.25,8.803 C 11.25,8.927 11.225,9.047 11.181,9.156 C 11.163,9.132 11.143,9.11 11.122,9.092 C 11.108,9.077 6.267,4.984 6.257,4.977 C 6.226,4.947 6.19,4.923 6.219,4.945 C 6.149,4.905 6.147,4.904 6.141,4.902 C 6.14,4.901 6.138,4.901 6.136,4.901 C 6.094,4.884 6.048,4.875 6.001,4.875 L 5.999,4.875 L 5.997,4.875 C 5.96,4.875 5.926,4.88 5.802,4.93 C 5.889,4.891 5.885,4.892 5.797,4.933 C 5.828,4.911 5.781,4.939 5.743,4.977 C 5.733,4.984 0.892,9.077 0.878,9.092 C 0.856,9.11 0.836,9.131 0.819,9.155 C 0.775,9.046 0.751,8.927 0.751,8.803 L 0.751,1.696 C 0.751,1.174 1.175,0.75 1.697,0.75 L 10.304,0.75 C 10.825,0.75 11.25,1.174 11.25,1.696 Z M 10.602,9.632 C 10.619,9.649 10.638,9.665 10.658,9.679 C 10.549,9.724 10.429,9.749 10.304,9.749 L 1.697,9.749 C 1.571,9.749 1.451,9.724 1.341,9.679 C 1.361,9.665 1.38,9.649 1.398,9.632 C 1.399,9.63 5.039,6.552 6,5.74 C 6.96,6.552 10.6,9.63 10.602,9.632 Z" stroke-width="0.25" stroke-linejoin="miter" stroke-linecap="round" fill="#6d6d7b" stroke="none" marker-start="none" marker-end="none" stroke-miterlimit="79.8403193612775"/>
   </g>
  </g>
 </g>
</svg>
