<?xml version="1.0" standalone="no"?>
<!DOCTYPE svg PUBLIC "-//W3C//DTD SVG 1.1//EN" "http://www.w3.org/Graphics/SVG/1.1/DTD/svg11.dtd">
<!--Generator: Xara Designer (www.xara.com), SVG filter version: 6.0.0.4-->
<svg stroke-width="0.501" stroke-linejoin="bevel" fill-rule="evenodd" xmlns:xlink="http://www.w3.org/1999/xlink" xmlns="http://www.w3.org/2000/svg" version="1.1" overflow="visible" width="12pt" height="16.5pt" viewBox="0 0 12 16.5">
 <defs>
	</defs>
 <g id="Document" fill="none" stroke="black" font-family="Times New Roman" font-size="16" transform="scale(1 -1)">
  <g id="Spread" transform="translate(0 -16.5)">
   <g id="Layer 1">
    <path d="M 2.999,10.5 C 2.999,12.156 4.343,13.5 5.999,13.5 C 7.655,13.5 8.999,12.156 8.999,10.5 C 8.999,8.844 7.655,7.5 5.999,7.5 C 4.343,7.5 2.999,8.844 2.999,10.5 Z M 8.249,10.5 C 8.249,11.742 7.241,12.75 5.999,12.75 C 4.757,12.75 3.749,11.742 3.749,10.5 C 3.749,9.258 4.757,8.25 5.999,8.25 C 7.241,8.25 8.249,9.258 8.249,10.5 Z" stroke-width="0.5" stroke-linejoin="miter" stroke-linecap="round" fill="#909090" stroke="none" marker-start="none" marker-end="none" stroke-miterlimit="79.8403193612775"/>
    <path d="M 5.812,0.089 C 5.574,0.376 0,7.153 0,10.423 C 0,13.774 2.691,16.5 6,16.5 C 9.309,16.5 12,13.774 12,10.423 C 12,7.152 6.426,0.376 6.189,0.089 C 6.141,0.032 6.072,0 6,0 C 5.927,0 5.859,0.032 5.812,0.089 Z M 5.999,1.055 L 6.226,1.342 C 6.796,2.07 7.684,3.244 8.561,4.561 C 10.014,6.744 11.25,9.07 11.25,10.423 C 11.25,13.354 8.894,15.741 6,15.741 C 3.105,15.741 0.75,13.354 0.75,10.423 C 0.75,9.061 1.974,6.762 3.438,4.561 C 4.314,3.244 5.203,2.07 5.773,1.341 L 5.999,1.055 Z" stroke-width="0.491" fill-rule="evenodd" stroke-linejoin="miter" fill="#909090" stroke="none" marker-start="none" marker-end="none" stroke-miterlimit="79.8403193612775"/>
   </g>
  </g>
 </g>
</svg>
