<?xml version="1.0" standalone="no"?>
<!DOCTYPE svg PUBLIC "-//W3C//DTD SVG 1.1//EN" "http://www.w3.org/Graphics/SVG/1.1/DTD/svg11.dtd">
<!--Generator: Xara Designer (www.xara.com), SVG filter version: 6.0.0.4-->
<svg stroke-width="0.501" stroke-linejoin="bevel" fill-rule="evenodd" xmlns:xlink="http://www.w3.org/1999/xlink" xmlns="http://www.w3.org/2000/svg" version="1.1" overflow="visible" width="12pt" height="16.5pt" viewBox="0 0 12 16.5">
 <defs>
	</defs>
 <g id="Document" fill="none" stroke="black" font-family="Times New Roman" font-size="16" transform="scale(1 -1)">
  <g id="Spread" transform="translate(0 -16.5)">
   <g id="Layer 1">
    <path d="M 0,0.636 L 0,15.863 C 0,16.214 0.285,16.499 0.636,16.499 L 11.363,16.499 C 11.714,16.499 11.999,16.214 11.999,15.863 L 11.999,0.636 C 11.999,0.285 11.714,0 11.363,0 L 0.636,0 C 0.285,0 0,0.285 0,0.636 Z M 11.249,0.75 L 11.249,15.749 L 0.75,15.749 L 0.75,0.75 L 11.249,0.75 Z" fill="#909090" stroke-width="0.5" stroke-linejoin="miter" stroke-linecap="round" stroke="none" marker-start="none" marker-end="none" stroke-miterlimit="79.8403193612775"/>
    <path d="M 4.939,2.689 C 4.354,3.275 4.354,4.225 4.939,4.811 C 5.525,5.396 6.475,5.396 7.061,4.811 C 7.646,4.225 7.646,3.275 7.061,2.689 C 6.475,2.104 5.525,2.104 4.939,2.689 Z M 6.53,3.22 C 6.823,3.512 6.823,3.988 6.53,4.28 C 6.238,4.573 5.762,4.573 5.47,4.28 C 5.177,3.988 5.177,3.512 5.47,3.22 C 5.762,2.927 6.238,2.927 6.53,3.22 Z" fill="#909090" stroke-width="0.354" stroke-linejoin="miter" stroke-linecap="round" stroke="none" marker-start="none" marker-end="none" stroke-miterlimit="79.8403193612775"/>
    <path d="M 3.75,14.037 L 3.75,12.962 C 3.75,12.845 3.845,12.75 3.962,12.75 L 8.037,12.75 C 8.154,12.75 8.249,12.845 8.249,12.962 L 8.249,14.037 C 8.249,14.154 8.154,14.249 8.037,14.249 L 3.962,14.249 C 3.845,14.249 3.75,14.154 3.75,14.037 Z" fill="#909090" stroke="none" stroke-linejoin="miter" stroke-linecap="round" stroke-width="0.354" marker-start="none" marker-end="none" stroke-miterlimit="79.8403193612775"/>
   </g>
  </g>
 </g>
</svg>
