<?xml version="1.0" standalone="no"?>
<!DOCTYPE svg PUBLIC "-//W3C//DTD SVG 1.1//EN" "http://www.w3.org/Graphics/SVG/1.1/DTD/svg11.dtd">
<!--Generator: Xara Designer (www.xara.com), SVG filter version: 6.0.0.4-->
<svg stroke-width="0.501" stroke-linejoin="bevel" fill-rule="evenodd" xmlns:xlink="http://www.w3.org/1999/xlink" xmlns="http://www.w3.org/2000/svg" version="1.1" overflow="visible" width="16.5pt" height="7.5pt" viewBox="0 0 16.5 7.5">
 <defs>
	</defs>
 <g id="Document" fill="none" stroke="black" font-family="Times New Roman" font-size="16" transform="scale(1 -1)">
  <g id="Spread" transform="translate(0 -7.5)">
   <g id="Layer 1">
    <path d="M 11.602,6.75 L 0.399,6.75 C 0.295,6.743 0.189,6.78 0.11,6.86 C -0.037,7.006 -0.037,7.244 0.11,7.39 C 0.189,7.469 0.295,7.506 0.399,7.499 L 11.596,7.499 C 11.701,7.507 11.809,7.47 11.89,7.39 C 12.037,7.244 12.037,7.006 11.89,6.86 C 11.811,6.78 11.706,6.744 11.602,6.75 Z" fill="#909090" stroke-width="0.059" stroke-linejoin="miter" stroke-linecap="round" stroke="none" marker-start="none" marker-end="none" stroke-miterlimit="79.8403193612775"/>
    <path d="M 16.102,0 L 0.399,0 C 0.295,-0.007 0.189,0.03 0.11,0.11 C -0.037,0.256 -0.037,0.494 0.11,0.64 C 0.189,0.719 0.295,0.756 0.399,0.749 L 16.096,0.749 C 16.201,0.757 16.309,0.72 16.39,0.64 C 16.537,0.494 16.537,0.256 16.39,0.11 C 16.311,0.03 16.206,-0.006 16.102,0 Z" fill="#909090" stroke-width="0.059" stroke-linejoin="miter" stroke-linecap="round" stroke="none" marker-start="none" marker-end="none" stroke-miterlimit="79.8403193612775"/>
   </g>
  </g>
 </g>
</svg>
