<?xml version="1.0" standalone="no"?>
<!DOCTYPE svg PUBLIC "-//W3C//DTD SVG 1.1//EN" "http://www.w3.org/Graphics/SVG/1.1/DTD/svg11.dtd">
<!--Generator: Xara Designer (www.xara.com), SVG filter version: 6.0.0.4-->
<svg stroke-width="0.501" stroke-linejoin="bevel" fill-rule="evenodd" xmlns:xlink="http://www.w3.org/1999/xlink" xmlns="http://www.w3.org/2000/svg" version="1.1" overflow="visible" width="16.5pt" height="16.5pt" viewBox="0 0 16.5 16.5">
 <defs>
	</defs>
 <g id="Document" fill="none" stroke="black" font-family="Times New Roman" font-size="16" transform="scale(1 -1)">
  <g id="Spread" transform="translate(0 -16.5)">
   <g id="Layer 1">
    <path d="M 2.416,2.416 C -0.805,5.636 -0.805,10.864 2.416,14.084 C 5.636,17.305 10.864,17.305 14.084,14.084 C 17.305,10.864 17.305,5.636 14.084,2.416 C 10.864,-0.805 5.636,-0.805 2.416,2.416 Z M 13.554,2.946 C 13.571,2.963 13.589,2.981 13.606,3 C 13.588,3.018 13.57,3.036 13.554,3.054 C 10.626,5.982 5.874,5.982 2.946,3.054 C 2.928,3.036 2.91,3.018 2.892,3 C 2.91,2.982 2.927,2.964 2.946,2.946 C 5.874,0.018 10.626,0.018 13.554,2.946 Z M 14.09,3.543 C 13.998,3.427 13.896,3.308 13.79,3.193 C 13.894,3.306 13.994,3.423 14.09,3.543 Z M 2.416,3.534 C 2.552,3.365 2.697,3.201 2.853,3.043 C 2.696,3.201 2.55,3.366 2.416,3.534 Z M 13.554,13.554 C 10.626,16.482 5.874,16.482 2.946,13.554 C 0.215,10.823 0.031,6.506 2.393,3.561 C 2.401,3.569 2.408,3.576 2.416,3.584 C 5.636,6.805 10.864,6.805 14.084,3.584 C 14.09,3.576 14.097,3.569 14.105,3.561 C 16.468,6.505 16.284,10.823 13.554,13.554 Z M 6.128,7.628 C 4.957,8.8 4.957,10.7 6.128,11.872 C 7.3,13.043 9.2,13.043 10.372,11.872 C 11.543,10.7 11.543,8.8 10.372,7.628 C 9.2,6.457 7.3,6.457 6.128,7.628 Z M 9.841,8.159 C 10.72,9.037 10.72,10.463 9.841,11.341 C 8.963,12.22 7.537,12.22 6.659,11.341 C 5.78,10.463 5.78,9.037 6.659,8.159 C 7.537,7.28 8.963,7.28 9.841,8.159 Z" stroke-width="0.556" stroke-linejoin="miter" stroke-linecap="round" fill="#6d6d7b" stroke="none" marker-start="none" marker-end="none" stroke-miterlimit="79.8403193612775"/>
   </g>
  </g>
 </g>
</svg>
