<?xml version="1.0" encoding="utf-8"?>
<!-- Generator: Adobe Illustrator 21.0.2, SVG Export Plug-In . SVG Version: 6.00 Build 0)  -->
<svg version="1.1" id="Layer_1" xmlns="http://www.w3.org/2000/svg" xmlns:xlink="http://www.w3.org/1999/xlink" x="0px" y="0px"
	 viewBox="0 0 20 18" style="enable-background:new 0 0 20 18;" xml:space="preserve">
<style type="text/css">
	.st0{fill:#444444;}
</style>
<g>
	<polygon class="st0" points="16,17 4,17 4,9 3,9 3,18 17,18 17,9 16,9 	"/>
	<path class="st0" d="M12.5,14c0.3,0,0.5-0.2,0.5-0.5S12.8,13,12.5,13h-5C7.2,13,7,13.2,7,13.5S7.2,14,7.5,14H12.5z"/>
	<path class="st0" d="M19.8,7.6l-9.5-7c-0.2-0.1-0.4-0.1-0.5,0l-9.5,7C0,7.7-0.1,8.1,0.1,8.3c0.2,0.2,0.4,0.3,0.7,0.1L10,1.6
		l9.3,6.8c0.1,0.1,0.2,0.1,0.3,0.1c0.1,0,0.3-0.1,0.4-0.2C20.1,8.1,20,7.7,19.8,7.6z"/>
</g>
</svg>
