<svg width="20" height="19" viewBox="0 0 20 19" xmlns="http://www.w3.org/2000/svg"><title>Group</title><g fill="#595966" fill-rule="evenodd"><path d="M9.997 17.999c2.401 0 4.803.002 7.205 0 1.054-.001 1.797-.817 1.797-1.972V6.98c0-1.168-.741-1.978-1.81-1.978H2.817C1.737 5.001 1 5.811 1 6.994v9.027c0 1.159.737 1.975 1.791 1.977 2.402.004 4.804.001 7.205 0zM0 6.396c.021-.088.044-.175.063-.263.275-1.27 1.246-2.127 2.443-2.13 2.993-.006 5.985-.002 8.977-.002h5.953c1.3 0 2.288.897 2.528 2.298.005.034.024.065.036.097V16.6c-.011.025-.03.05-.033.076-.124 1.162-1.108 2.33-2.57 2.325-4.977-.018-9.953-.006-14.93-.007-1.097 0-2.076-.823-2.372-1.982-.035-.137-.063-.275-.095-.412V6.396zM13.04.002s-.013.212 0 .998c.006.399 0 1.949 0 1.949s-.142.055-.378.05A10.256 10.256 0 0 1 12 2.95V1H7v1.949s-.32.003-.546 0c-.228-.003-.454 0-.454 0S5.993 1.379 6 1c.014-.793 0-.998 0-.998h7.039z"/></g></svg>