<?xml version="1.0" encoding="utf-8"?>
<!-- Generator: Adobe Illustrator 21.0.2, SVG Export Plug-In . SVG Version: 6.00 Build 0)  -->
<svg version="1.1" id="Layer_1" xmlns="http://www.w3.org/2000/svg" xmlns:xlink="http://www.w3.org/1999/xlink" x="0px" y="0px"
	 viewBox="0 0 18 17" style="enable-background:new 0 0 18 17;" xml:space="preserve">
<style type="text/css">
	.st0{fill:#444444;}
</style>
<g>
	<path class="st0" d="M9,8.9c-2.5,0-4.5-2-4.5-4.4s2-4.4,4.5-4.4s4.5,2,4.5,4.4S11.5,8.9,9,8.9z M9,1.1c-1.9,0-3.5,1.5-3.5,3.4
		S7.1,7.9,9,7.9c1.9,0,3.5-1.5,3.5-3.4S10.9,1.1,9,1.1z"/>
</g>
<g>
	<path class="st0" d="M17.9,16.9H0.1v-2.6C0.1,11,6,9.5,9,9.5c3,0,8.9,1.4,8.9,4.8V16.9z M1.1,15.9h15.8v-1.6c0-2.5-5.2-3.8-7.9-3.8
		c-2.7,0-7.9,1.3-7.9,3.8V15.9z"/>
</g>
</svg>
