<?xml version="1.0" encoding="UTF-8"?>
<svg width="17px" height="17px" viewBox="0 0 17 17" version="1.1" xmlns="http://www.w3.org/2000/svg" xmlns:xlink="http://www.w3.org/1999/xlink">
    <!-- Generator: Sketch 46.2 (44496) - http://www.bohemiancoding.com/sketch -->
    <title>Green</title>
    <desc>Created with Sketch.</desc>
    <defs></defs>
    <g id="Booking-office---Job-Details" stroke="none" stroke-width="1" fill="none" fill-rule="evenodd">
        <g id="Symbols" transform="translate(-45.000000, -43.000000)" fill="#1DB670">
            <g id="Green" transform="translate(45.000000, 43.000000)">
                <path d="M8.5,17 C3.80557963,17 0,13.1944204 0,8.5 C0,3.80557963 3.80557963,0 8.5,0 C13.1944204,0 17,3.80557963 17,8.5 C17,13.1944204 13.1944204,17 8.5,17 Z M13.0898035,5.36589191 C12.6016351,4.87803603 11.8100022,4.87803603 11.3218338,5.36589191 L6.90206576,9.7859725 L5.13409604,8.01800277 C4.64592762,7.52983436 3.85460725,7.52983436 3.36612631,8.01800277 C2.8779579,8.50617118 2.8779579,9.29780408 3.36612631,9.78628502 L6.01761211,12.4374583 C6.50578052,12.9256267 7.29772595,12.9256267 7.78589436,12.4374583 L13.089491,7.13386164 C13.577972,6.64569323 13.578597,5.85437286 13.0898035,5.36589191 Z" id="Combined-Shape"></path>
            </g>
        </g>
    </g>
</svg>