<?xml version="1.0" encoding="UTF-8"?>
<svg width="17px" height="17px" viewBox="0 0 17 17" version="1.1" xmlns="http://www.w3.org/2000/svg" xmlns:xlink="http://www.w3.org/1999/xlink">
    <!-- Generator: Sketch 46.2 (44496) - http://www.bohemiancoding.com/sketch -->
    <title>red/blocked</title>
    <desc>Created with Sketch.</desc>
    <defs></defs>
    <g id="Booking-office---Job-Details" stroke="none" stroke-width="1" fill="none" fill-rule="evenodd">
        <g id="Symbols" transform="translate(-44.000000, -181.000000)" fill="#FD4264">
            <g id="blocked_icon" transform="translate(44.000000, 181.000000)">
                <path d="M4.17540015,13.952278 C6.82740015,16.128278 11.0547335,16.0527224 13.663289,13.1731113 C16.2350113,10.3341113 15.8241779,6.36177795 13.9447335,4.18105573 C10.688289,7.43844462 7.43184459,10.6958335 4.17540015,13.952278 M3.04490015,12.8255557 C6.30890015,9.56061129 9.56723348,6.30133351 12.8246224,3.04394462 C10.2708446,0.95294462 6.24373348,0.929333509 3.59551126,3.55205573 C0.97751126,6.14361129 0.901955705,10.1820557 3.04490015,12.8255557 M8.49906682,1.75945218e-07 C13.221289,-0.000944268499 17.0056779,3.80044462 17.0000113,8.53683351 C16.9943446,13.1976668 13.1844557,17.0018891 8.5264557,16.9981113 C3.78817793,16.995278 -0.0075442954,13.2052224 1.12601514e-05,8.48677795 C0.00756681571,3.78533351 3.79856682,1.75945218e-07 8.49906682,1.75945218e-07"></path>
            </g>
        </g>
    </g>
</svg>