<?xml version="1.0" encoding="UTF-8"?>
<svg width="17px" height="17px" viewBox="0 0 17 17" version="1.1" xmlns="http://www.w3.org/2000/svg" xmlns:xlink="http://www.w3.org/1999/xlink">
    <!-- Generator: Sketch 46.2 (44496) - http://www.bohemiancoding.com/sketch -->
    <title>red/booking</title>
    <desc>Created with Sketch.</desc>
    <defs>
        <path d="M8.5,17 C3.80557963,17 0,13.1944204 0,8.5 C0,3.80557963 3.80557963,0 8.5,0 C13.1944204,0 17,3.80557963 17,8.5 C17,13.1944204 13.1944204,17 8.5,17 Z M9.3475535,13.1409574 C9.5869164,12.9015945 9.70659605,12.606828 9.70659605,12.2566489 C9.70659605,11.9064699 9.5869164,11.6117033 9.3475535,11.3723404 C9.1081906,11.1329775 8.81342404,11.0132979 8.46324499,11.0132979 C8.11306593,11.0132979 7.81829937,11.1329775 7.57893648,11.3723404 C7.33957358,11.6117033 7.21989392,11.9064699 7.21989392,12.2566489 C7.21989392,12.606828 7.33957358,12.9015945 7.57893648,13.1409574 C7.81829937,13.3803203 8.11306593,13.5 8.46324499,13.5 C8.81342404,13.5 9.1081906,13.3803203 9.3475535,13.1409574 Z M7.44595775,10.1489362 L9.37414924,10.1489362 L9.64010669,3.5 L7.18000031,3.5 L7.44595775,10.1489362 Z" id="path-1"></path>
    </defs>
    <g id="Booking-office---Job-Details" stroke="none" stroke-width="1" fill="none" fill-rule="evenodd">
        <g id="Symbols" transform="translate(-44.000000, -130.000000)">
            <g id="red/booking" transform="translate(44.000000, 130.000000)">
                <mask id="mask-2" fill="white">
                    <use xlink:href="#path-1"></use>
                </mask>
                <use id="Combined-Shape" fill="#FD4264" xlink:href="#path-1"></use>
            </g>
        </g>
    </g>
</svg>