<?xml version="1.0" encoding="UTF-8"?>
<svg width="17px" height="17px" viewBox="0 0 17 17" version="1.1" xmlns="http://www.w3.org/2000/svg" xmlns:xlink="http://www.w3.org/1999/xlink">
    <!-- Generator: Sketch 46.2 (44496) - http://www.bohemiancoding.com/sketch -->
    <title>red/declined</title>
    <desc>Created with Sketch.</desc>
    <defs>
        <path d="M8.5,17 C3.80557963,17 0,13.1944204 0,8.5 C0,3.80557963 3.80557963,0 8.5,0 C13.1944204,0 17,3.80557963 17,8.5 C17,13.1944204 13.1944204,17 8.5,17 Z M10.8071766,4.77727469 L8.48545361,6.8322028 L6.14087698,4.75590139 C5.77993671,4.39234553 5.15597193,4.39234553 4.77236103,4.77727469 C4.38969581,5.16125491 4.38969581,5.78440194 4.77236103,6.16838216 L7.09659712,8.50060531 L4.77477399,10.8304072 C4.39210877,11.2143874 4.39210877,11.8375345 4.77477399,12.2215147 C4.96093418,12.4083146 5.21066656,12.5114222 5.4691608,12.5114222 C5.72765505,12.5114222 5.97738743,12.4083146 6.16354762,12.2215147 L8.48536211,9.89172145 L10.8071766,12.2215147 C10.9933368,12.4083146 11.2430692,12.5114222 11.5015634,12.5114222 C11.7600577,12.5114222 12.00979,12.4083146 12.1959502,12.2215147 C12.5786155,11.8375345 12.5786155,11.2143874 12.1959502,10.8304072 L9.87412711,8.50060531 L12.1983632,6.16838216 C12.5810284,5.78440194 12.5810284,5.16125491 12.1983632,4.77727469 C11.8147523,4.39234553 11.1907875,4.39234553 10.8071766,4.77727469 Z" id="path-1"></path>
    </defs>
    <g id="Booking-office---Job-Details" stroke="none" stroke-width="1" fill="none" fill-rule="evenodd">
        <g id="Symbols" transform="translate(-44.000000, -158.000000)">
            <g id="red/declined" transform="translate(44.000000, 158.000000)">
                <mask id="mask-2" fill="white">
                    <use xlink:href="#path-1"></use>
                </mask>
                <use id="Combined-Shape" fill="#FD4264" xlink:href="#path-1"></use>
            </g>
        </g>
    </g>
</svg>