<?xml version="1.0" encoding="UTF-8"?>
<svg width="17px" height="17px" viewBox="0 0 17 17" version="1.1" xmlns="http://www.w3.org/2000/svg" xmlns:xlink="http://www.w3.org/1999/xlink">
    <!-- Generator: Sketch 46.2 (44496) - http://www.bohemiancoding.com/sketch -->
    <title>Yellow</title>
    <desc>Created with Sketch.</desc>
    <defs></defs>
    <g id="Booking-office---Job-Details" stroke="none" stroke-width="1" fill="none" fill-rule="evenodd">
        <g id="Symbols" transform="translate(-45.000000, -73.000000)" fill="#FF8254">
            <g id="Yellow" transform="translate(45.000000, 73.000000)">
                <path d="M8.5,17 C3.80557963,17 0,13.1944204 0,8.5 C0,3.80557963 3.80557963,0 8.5,0 C13.1944204,0 17,3.80557963 17,8.5 C17,13.1944204 13.1944204,17 8.5,17 Z M7.561,12.649 C7.79500117,12.8830012 8.08316495,13 8.4255,13 C8.76783504,13 9.05599883,12.8830012 9.29,12.649 C9.52400117,12.4149988 9.641,12.126835 9.641,11.7845 C9.641,11.442165 9.52400117,11.1540012 9.29,10.92 C9.05599883,10.6859988 8.76783504,10.569 8.4255,10.569 C8.08316495,10.569 7.79500117,10.6859988 7.561,10.92 C7.32699883,11.1540012 7.21,11.442165 7.21,11.7845 C7.21,12.126835 7.32699883,12.4149988 7.561,12.649 Z M6.95,3.9065 C6.41266398,4.43950266 6.15266658,5.10899597 6.17,5.915 L8.263,5.915 C8.263,5.61166515 8.34749915,5.37116755 8.5165,5.1935 C8.68550084,5.01583244 8.9194985,4.927 9.2185,4.927 C9.51750149,4.927 9.75149915,5.01799909 9.9205,5.2 C10.0895008,5.38200091 10.174,5.62033186 10.174,5.915 C10.174,6.35700221 10.0136683,6.65599922 9.693,6.812 C9.37233173,6.96800078 8.87400338,7.046 8.198,7.046 L7.327,7.046 L7.327,9.724 L9.42,9.724 L9.42,8.489 C10.3646714,8.47166658 11.0861642,8.2658353 11.5845,7.8715 C12.0828358,7.47716469 12.332,6.83583777 12.332,5.9475 C12.332,5.05916222 12.0416696,4.36366918 11.461,3.861 C10.8803304,3.35833082 10.1176714,3.107 9.173,3.107 C8.22832861,3.107 7.48733602,3.37349733 6.95,3.9065 Z" id="Combined-Shape"></path>
            </g>
        </g>
    </g>
</svg>