<svg width="13" height="13" viewBox="0 0 13 13" xmlns="http://www.w3.org/2000/svg"><title>575649B8-4C49-4454-92C4-6BF1E9AAECA2</title><g transform="translate(1 1)" fill="none" fill-rule="evenodd"><circle stroke="#595966" cx="5.5" cy="5.5" r="5.5"/><path d="M3.143 3.655h.918c.06-.768.575-1.246 1.386-1.246.8 0 1.316.49 1.316 1.155 0 .575-.242.913-.865 1.295-.736.44-1.08.923-1.074 1.632v.494h.94v-.349c0-.564.193-.864.875-1.267.688-.414 1.123-1.01 1.123-1.853 0-1.107-.924-1.945-2.277-1.945-1.51 0-2.283.924-2.342 2.084zm2.154 5.78c.349 0 .612-.269.612-.613a.599.599 0 0 0-.612-.612.602.602 0 0 0-.613.612c0 .344.269.613.613.613z" fill="#595966"/></g></svg>