<?xml version="1.0" standalone="no"?>
<!DOCTYPE svg PUBLIC "-//W3C//DTD SVG 1.1//EN" "http://www.w3.org/Graphics/SVG/1.1/DTD/svg11.dtd">
<!--Generator: Xara Designer (www.xara.com), SVG filter version: 6.0.0.4-->
<svg stroke-width="0.501" stroke-linejoin="bevel" fill-rule="evenodd" xmlns:xlink="http://www.w3.org/1999/xlink" xmlns="http://www.w3.org/2000/svg" version="1.1" overflow="visible" width="39pt" height="21pt" viewBox="0 0 39 21">
 <defs>
	</defs>
 <g id="Document" fill="none" stroke="black" font-family="Times New Roman" font-size="16" transform="scale(1 -1)">
  <g id="Spread" transform="translate(0 -21)">
   <g id="Layer 1">
    <path d="M 0,3.05 L 0,17.951 C 0,19.634 1.366,21 3.049,21 L 35.95,21 C 37.633,21 38.999,19.634 38.999,17.951 L 38.999,3.05 C 38.999,1.367 37.633,0.001 35.95,0.001 L 3.049,0.001 C 1.366,0.001 0,1.367 0,3.05 Z M 38.249,3.05 L 38.249,17.951 C 38.249,19.219 37.218,20.25 35.95,20.25 L 3.049,20.25 C 1.78,20.25 0.75,19.219 0.75,17.951 L 0.75,3.05 C 0.75,1.781 1.78,0.751 3.049,0.751 L 35.95,0.751 C 37.218,0.751 38.249,1.781 38.249,3.05 Z" fill="#1db670" stroke="none" stroke-width="0.75" stroke-linejoin="miter" marker-start="none" marker-end="none" stroke-miterlimit="79.8403193612775"/>
    <path d="M 15,10.127 C 15,11.576 13.824,12.752 12.375,12.752 C 10.926,12.752 9.75,11.576 9.75,10.127 C 9.75,8.678 10.926,7.502 12.375,7.502 C 13.824,7.502 15,8.678 15,10.127 Z" stroke-linejoin="miter" stroke="none" stroke-width="0.75" fill="#1db670" marker-start="none" marker-end="none" stroke-miterlimit="79.8403193612775"/>
    <path d="M 22.5,10.127 C 22.5,11.576 21.324,12.752 19.875,12.752 C 18.426,12.752 17.25,11.576 17.25,10.127 C 17.25,8.678 18.426,7.502 19.875,7.502 C 21.324,7.502 22.5,8.678 22.5,10.127 Z" stroke-linejoin="miter" stroke="none" stroke-width="0.75" fill="#1db670" marker-start="none" marker-end="none" stroke-miterlimit="79.8403193612775"/>
    <path d="M 30,10.127 C 30,11.576 28.824,12.752 27.375,12.752 C 25.926,12.752 24.75,11.576 24.75,10.127 C 24.75,8.678 25.926,7.502 27.375,7.502 C 28.824,7.502 30,8.678 30,10.127 Z" stroke-linejoin="miter" stroke="none" stroke-width="0.75" fill="#1db670" marker-start="none" marker-end="none" stroke-miterlimit="79.8403193612775"/>
   </g>
  </g>
 </g>
</svg>
