<?xml version="1.0" encoding="UTF-8"?>
<svg width="46px" height="55px" viewBox="0 0 46 55" version="1.1" xmlns="http://www.w3.org/2000/svg" xmlns:xlink="http://www.w3.org/1999/xlink">
    <!-- Generator: Sketch 44.1 (41455) - http://www.bohemiancoding.com/sketch -->
    <title>icon</title>
    <desc>Created with Sketch.</desc>
    <defs></defs>
    <g id="Symbols" stroke="none" stroke-width="1" fill="none" fill-rule="evenodd">
        <g id="Add-attachment/1" transform="translate(-286.000000, -57.000000)" fill="#36BE80">
            <g id="text">
                <g transform="translate(212.000000, 57.000000)">
                    <g id="icon" transform="translate(74.000000, 0.000000)">
                        <path d="M42,14.9989449 C38.3315251,11.3303503 34.651333,7.6500318 31.000434,4 C31.000434,4.04396452 30.9994575,4.17976602 31.000434,4.31556752 C31.0209392,7.4683118 31.0394915,10.6220331 31.0619495,13.7747773 C31.0687846,14.6540677 31.4095612,14.9960139 32.3030013,14.9979679 C34.9491464,15.0018758 37.5952914,14.9989449 40.2424129,14.9989449 C40.8624506,14.9989449 41.4824882,14.9989449 42,14.9989449 M29.0251465,2.02203494 C28.7887601,2.01089083 28.1166538,2.00075983 27.9913893,2.00075983 C19.7592842,1.99974672 11.5271791,1.99974672 3.29608428,2.00075983 C2.35659996,2.00075983 2,2.36344991 2,3.31880395 C2,19.3784776 2.0010102,35.4381512 2.00303059,51.4978248 C2.00303059,52.7135458 2.28689629,52.9992402 3.49206273,52.9992402 C16.5155378,53.0002533 29.5400231,53.0002533 42.5634982,52.9992402 C43.6898692,52.9992402 44,52.6872051 44,51.5505061 L44,18.8172197 L44,17 C38.5342505,16.9993246 34.5342505,16.9993246 32,17 C29.986675,17.0010131 29.0030306,16.2732933 29,14.24 C28.9959592,10.8795447 29.0111122,7.4004553 29,4.04 C28.9986531,3.62125168 29.0070352,2.94859666 29.0251465,2.02203494 Z M43.4263007,55 L2.59729191,55 C0.605291825,54.3051955 -0.0180823243,52.8593596 -0.000100377639,50.8060718 C0.0688304178,43.2345102 0.0248745482,35.6619446 0.0248745482,28.090383 C0.0258735453,19.8551426 0.0248745482,11.6209062 0.0298695334,3.38666983 C0.0308685304,1.78520574 0.874022028,0.629541057 2.37951056,0.117474168 C2.45643333,0.0913687977 2.52536413,0.0391580562 2.59729191,0 L29.3174656,0 C29.9608197,0.42069809 30.6671106,0.770108438 31.2335419,1.27715506 C32.227544,2.16975793 33.1356323,3.15874986 34.0796845,4.10757969 C37.6930567,7.73823433 41.303432,11.3708971 44.9168043,14.9995436 C45.6300882,15.7154332 46.019697,16.5528132 45.9987181,17.5859834 C45.9757412,18.7657454 45.9927241,19.9475154 45.9927241,21.1282814 C45.9927241,31.290299 45.9937231,41.4513126 45.9917251,51.6123261 C45.9917251,53.0752309 45.2214984,54.2509767 43.9437812,54.7730841 C43.7689567,54.8443718 43.5981282,54.924696 43.4263007,55" id="Fill-1"></path>
                        <path d="M24,33 L32,33 L32,35.0009155 C27.2252604,35.0009155 24.5585938,35.0009155 24,35.0009155 C23.9926667,35.1349155 23.9926667,37.8002394 24,42.9968872 L22.0009766,42.9968872 L22.0009766,35.0009155 C21.8483099,34.9935822 19.1813177,34.9935822 14,35.0009155 L14,33 L22.0009766,33 L22.0009766,25 L24,25 L24,33 Z" id="Fill-4"></path>
                    </g>
                </g>
            </g>
        </g>
    </g>
</svg>