<?xml version="1.0" standalone="no"?>
<!DOCTYPE svg PUBLIC "-//W3C//DTD SVG 1.1//EN" "http://www.w3.org/Graphics/SVG/1.1/DTD/svg11.dtd">
<!--Generator: Xara Designer (www.xara.com), SVG filter version: 6.0.0.4-->
<svg stroke-width="0.501" stroke-linejoin="bevel" fill-rule="evenodd" xmlns:xlink="http://www.w3.org/1999/xlink" xmlns="http://www.w3.org/2000/svg" version="1.1" overflow="visible" width="9pt" height="6pt" viewBox="0 0 9 6">
 <defs>
	</defs>
 <g id="Document" fill="none" stroke="black" font-family="Times New Roman" font-size="16" transform="scale(1 -1)">
  <g id="Spread" transform="translate(0 -6)">
   <g id="Layer 1">
    <path d="M 4.334,0.019 C 4.321,0.021 4.308,0.024 4.297,0.03 C 4.251,0.04 4.215,0.054 4.182,0.071 C 4.166,0.077 4.153,0.084 4.142,0.093 C 4.099,0.113 4.071,0.132 4.046,0.154 C 4.03,0.164 4.019,0.173 4.009,0.184 C 3.972,0.214 3.95,0.236 3.932,0.262 C 3.921,0.27 3.916,0.277 3.911,0.284 C 3.891,0.304 0.202,4.732 0.189,4.751 C 0.071,4.884 0,5.058 0,5.25 C 0,5.664 0.336,6 0.75,6 C 0.993,6 1.21,5.883 1.347,5.703 C 1.355,5.693 3.469,3.155 4.499,1.92 C 5.528,3.155 7.642,5.693 7.651,5.703 C 7.788,5.883 8.005,6 8.248,6 C 8.662,6 8.998,5.664 8.998,5.25 C 8.998,5.058 8.927,4.884 8.809,4.751 C 8.796,4.732 5.107,0.304 5.087,0.284 C 5.081,0.277 5.076,0.27 5.065,0.262 C 5.047,0.236 5.025,0.214 4.988,0.184 C 4.978,0.173 4.967,0.164 4.951,0.154 C 4.926,0.132 4.898,0.113 4.855,0.093 C 4.844,0.084 4.831,0.077 4.815,0.071 C 4.782,0.054 4.746,0.04 4.7,0.03 C 4.689,0.024 4.676,0.021 4.663,0.019 C 4.611,0.006 4.556,0 4.5,0 L 4.499,0 L 4.498,0 C 4.441,0 4.386,0.006 4.334,0.019 Z" stroke="none" fill="#ffffff" stroke-width="0.5" stroke-linejoin="miter" stroke-linecap="round" marker-start="none" marker-end="none" stroke-miterlimit="79.8403193612775"/>
   </g>
  </g>
 </g>
</svg>
