<?xml version="1.0" encoding="UTF-8"?>
<svg width="17px" height="15px" viewBox="0 0 17 15" version="1.1" xmlns="http://www.w3.org/2000/svg" xmlns:xlink="http://www.w3.org/1999/xlink">
    <!-- Generator: Sketch 42 (36781) - http://www.bohemiancoding.com/sketch -->
    <title>Assign</title>
    <desc>Created with Sketch.</desc>
    <defs></defs>
    <g id="Symbols" stroke="none" stroke-width="1" fill="none" fill-rule="evenodd">
        <g id="Assign_Button" transform="translate(-21.000000, -12.000000)" fill="#FFFFFF">
            <g id="text" transform="translate(20.000000, 12.000000)">
                <g id="Assign">
                    <path d="M17,10.9991767 C17,9.34023904 15.6583646,8.00580414 13.9863016,8.00000945 C12.3532589,7.99587038 10.9991702,9.35182843 11.0000004,10.9908986 C11.0008306,12.655631 12.3449567,14.0008274 14.0037362,13.9999996 C15.6533832,13.998344 17,12.6498363 17,10.9991767 M13.9958222,14.9999986 C11.7880941,15.0018575 10.0018582,13.2089026 10.0000014,10.9893192 C9.99814465,8.79854951 11.7825237,7.00652407 13.9735407,7.00001775 C16.193338,6.99351144 17.9981418,8.77624214 17.9999986,10.977236 C18.0018553,13.2051847 16.2174763,14.9981396 13.9958222,14.9999986" id="Fill-4"></path>
                    <path d="M13.7477823,11.9924249 C13.7788719,11.9582149 13.8410512,11.8908985 13.9010097,11.8213749 C14.3529197,11.2883612 14.802609,10.754244 15.254519,10.2212303 C15.4599326,9.98065678 15.6697876,9.93651486 15.8574357,10.0877009 C16.0495252,10.2421977 16.0484149,10.4595966 15.848553,10.697963 C15.2634017,11.3931983 14.6771401,12.0884336 14.0897682,12.7803582 C13.8477132,13.0650736 13.650072,13.0727984 13.3858102,12.8046363 C12.9694312,12.3841845 12.5574936,11.9626291 12.1477767,11.5377631 C11.9601286,11.3435386 11.9523562,11.122829 12.1177974,10.9628146 C12.2776869,10.8116285 12.5064178,10.8325959 12.6996176,11.0124742 C13.0438242,11.3369173 13.3902515,11.6591534 13.7477823,11.9924249" id="Fill-7"></path>
                    <path d="M8.33011475,1.05513411 C7.14401267,1.07052851 6.22517782,2.03182287 6.24177827,3.23942753 C6.26003876,4.45472939 7.20294426,5.3878007 8.40481677,5.36470911 C9.54028747,5.34247276 10.4632724,4.330719 10.4275815,3.12568007 C10.3943806,1.99419213 9.44566491,1.04059496 8.33011475,1.05513411 M6.0831,0.9094 C7.3841,-0.3476 9.4671,-0.2976 10.7011,1.0384 C11.9331,2.3724 11.8911,4.6594 10.0591,5.9304 C10.1681,5.9664 10.4129996,5.91140017 10.4999996,5.93940017 C10.7059996,6.00540017 10.9600998,5.93940017 10.9600998,5.93940017 C10.9600998,5.93940017 11.0430998,6.31904042 10.9600998,6.52104042 C10.8800998,6.71504042 11.2215447,6.99999998 10.9600998,6.99999998 C10.4999996,6.99999998 8.88100007,6.98599998 8.00000007,6.99999998 C5.36829565,7.04358108 2.99276764,7.9989575 1.99999995,10.5000005 C1.72199995,11.2270005 1.99999995,12.5000005 1.99999996,12.9803996 C1.99999997,13.1004562 1.58600002,12.9083996 1.50000002,12.9803996 C1.42500002,13.0433996 1.1061,13.0113996 1.0001,12.9803996 C1.0181,12.2413996 1.0001,11.5000005 1.0001,11.0000005 C1.0001,8.31765 3.50400007,6.69240017 6.00000007,5.93940017 C6.06500007,5.92040017 6.5081,5.9704 6.6061,5.9394 C4.6551,4.6054 4.7931,2.1554 6.0831,0.9094 Z" id="Fill-1"></path>
                </g>
            </g>
        </g>
    </g>
</svg>