<?xml version="1.0" standalone="no"?>
<!DOCTYPE svg PUBLIC "-//W3C//DTD SVG 1.1//EN" "http://www.w3.org/Graphics/SVG/1.1/DTD/svg11.dtd">
<!--Generator: Xara Designer (www.xara.com), SVG filter version: 6.0.0.4-->
<svg stroke-width="0.501" stroke-linejoin="bevel" fill-rule="evenodd" xmlns:xlink="http://www.w3.org/1999/xlink" xmlns="http://www.w3.org/2000/svg" version="1.1" overflow="visible" width="6pt" height="10.5pt" viewBox="0 0 6 10.5">
 <defs>
	</defs>
 <g id="Document" fill="none" stroke="black" font-family="Times New Roman" font-size="16" transform="scale(1 -1)">
  <g id="Spread" transform="translate(0 -10.5)">
   <g id="Layer 1">
    <g id="Group" stroke-linejoin="miter" stroke="none" stroke-width="0.75" fill="#1db670" stroke-miterlimit="79.8403193612775">
     <g id="Group_1">
      <g id="Group_2">
       <g id="Group_3">
        <g id="Group_4">
         <path d="M 1.5,8.312 L 1.5,3.062 C 1.5,2.318 2.271,2.25 3,2.25 C 3.728,2.25 4.5,2.318 4.5,3.062 L 4.5,7.437 C 4.5,7.7 4.382,7.437 4.125,7.437 C 3.867,7.437 3.75,7.7 3.75,7.437 L 3.75,3.062 C 3.75,2.8 3.257,3.062 3,3.062 C 2.742,3.062 2.25,2.8 2.25,3.062 L 2.25,8.312 C 2.25,9.056 3.128,9.625 3.857,9.625 C 4.585,9.625 5.25,9.056 5.25,8.312 L 5.25,3.062 C 5.25,1.837 4.199,0.75 3,0.75 C 1.8,0.75 0.75,1.837 0.75,3.062 L 0.75,10.062 C 0.75,10.325 0.685,10.5 0.428,10.5 C 0.171,10.5 0,10.325 0,10.062 L 0,3.062 C 0,1.356 1.328,0 3,0 C 4.671,0 6,1.356 6,3.062 L 6,8.312 C 6,9.537 5.057,10.5 3.857,10.5 C 2.657,10.5 1.5,9.537 1.5,8.312 Z" marker-start="none" marker-end="none"/>
        </g>
       </g>
      </g>
     </g>
    </g>
   </g>
  </g>
 </g>
</svg>
