<?xml version="1.0" encoding="UTF-8"?>
<svg width="36px" height="39px" viewBox="0 0 36 39" version="1.1" xmlns="http://www.w3.org/2000/svg" xmlns:xlink="http://www.w3.org/1999/xlink">
    <!-- Generator: Sketch 44.1 (41455) - http://www.bohemiancoding.com/sketch -->
    <title>Shape</title>
    <desc>Created with Sketch.</desc>
    <defs></defs>
    <g id="Symbols" stroke="none" stroke-width="1" fill="none" fill-rule="evenodd">
        <g id="Attachments" transform="translate(-26.000000, -52.000000)" fill-rule="nonzero" fill="#1DB670">
            <g id="Group" transform="translate(0.000000, 28.000000)">
                <path d="M35.582118,62.8577119 C33.4462771,62.8577119 31.3894431,61.9348587 29.5337778,60.0798573 C23.5571413,54.0992373 28.6992263,48.0216845 30.4181235,46.3007956 L50.2222881,26.5477531 C50.9638903,25.805487 52.3302442,24.9091907 53.9382661,24.6230398 C55.3072757,24.3813717 57.3415364,24.4955665 59.2708971,26.4255912 C61.2586831,28.4113855 61.4366145,30.3712867 61.2354458,31.6659369 C60.9426557,33.5508148 59.7502497,34.915177 59.2509794,35.4137833 L39.3618326,55.2551276 C38.8160878,55.8015364 37.6781235,56.9401646 36.1424691,56.9401646 C35.2156324,56.9401646 34.3279671,56.5205652 33.5020466,55.6933169 C31.9730316,54.1656296 32.2452401,52.1380082 34.2496241,50.1296406 L54.043166,30.3208285 C54.3027599,30.0612346 54.7223594,30.0612346 54.9819534,30.3208285 C55.2415473,30.5797586 55.2415473,31.0000219 54.9819534,31.2596159 L35.1890754,51.0690919 C32.9728999,53.2885871 34.078332,54.3926914 34.4414979,54.7558573 C35.0091523,55.3241756 35.581454,55.6129822 36.1418052,55.6129822 C37.1270672,55.6136461 38.0027819,54.7379314 38.4237092,54.3163402 L58.312856,34.474332 C58.719177,34.068011 59.6904966,32.9605871 59.9235336,31.4627764 C60.1472757,30.0220631 59.6114897,28.6437586 58.3327737,27.3650425 C57.1071715,26.1394403 55.7102771,25.6554403 54.1713032,25.9316324 C52.8653663,26.1640055 51.7333772,26.9149026 51.1610754,27.4885322 L31.3562469,47.2409108 C28.9714348,49.6283786 25.6843512,54.3502003 30.4725652,59.1417339 C35.1678299,63.8343429 39.86907,60.5333169 42.253882,58.1478409 L59.4109849,40.9104033 C59.669915,40.6508093 60.0908422,40.6488176 60.3497723,40.9077476 C60.6100302,41.1666776 60.611358,41.586941 60.352428,41.846535 L43.1939973,59.0853004 C40.6837037,61.595594 38.079797,62.8577119 35.582118,62.8577119 Z" id="Shape"></path>
            </g>
        </g>
    </g>
</svg>