<?xml version="1.0" encoding="UTF-8"?>
<svg width="18px" height="16px" viewBox="0 0 18 16" version="1.1" xmlns="http://www.w3.org/2000/svg" xmlns:xlink="http://www.w3.org/1999/xlink">
    <!-- Generator: sketchtool 42 (36781) - http://www.bohemiancoding.com/sketch -->
    <title>1C9F3A6B-F960-4EFD-9034-26E2A198E6E3</title>
    <desc>Created with sketchtool.</desc>
    <defs></defs>
    <g id="Desktop" stroke="none" stroke-width="1" fill="none" fill-rule="evenodd">
        <g id="02_Desktop_User-Dropdown" transform="translate(-282.000000, -22.000000)" fill="#FFFFFF">
            <g id="Header">
                <g id="Menu" transform="translate(282.000000, 11.000000)">
                    <g id="Bookings" transform="translate(0.000000, 8.000000)">
                        <g id="Bookings_icon" transform="translate(0.000000, 3.000000)">
                            <path d="M3.00000009,2.01217221 C2.34098606,2.01217221 2.18244958,1.99492825 1.5511003,2.01217221 C1.2803809,2.02028701 1.08573957,2.22822888 1.03337414,2.5071753 C1.00669741,2.65019873 1.00175727,2.79829392 1.00175727,2.9443604 C0.99978122,5.70745142 0.99978122,8.47155678 0.99978122,11.2346478 C0.99978122,12.2317544 0.99978122,13.2278467 1.00076925,14.2249533 C1.00175727,14.7463295 1.24481192,14.9968741 1.74870571,14.9999172 L1.94235901,14.9999172 L13.1564658,14.9999172 C14.2185949,14.9999172 15.280724,15.0009315 16.342853,14.9958598 C16.7370758,14.9948454 16.9781544,14.7432865 16.9939628,14.3365319 C16.998903,14.2208959 16.998903,14.1042456 16.998903,13.9886097 L16.998903,5.86264706 C16.998903,4.83612426 17.000879,3.80757276 16.998903,2.78104996 C16.9969269,2.23431499 16.7686927,2 16.2470144,2 C15.9357859,2 15.6245574,2.00101435 15.3143169,2.00101435 L14.9999996,2.01217221 L14.9999996,2.94436038 L13.9999996,2.94436038 L13.9999996,2.01217221 L4.00000009,2.01217221 L4.00000009,2.94436038 L3.00000009,2.94436038 L3.00000009,2.01217221 Z M13.9999999,0.00999999978 L14.9999999,0.00999999978 L14.9999999,1 C15.5049999,1.001 15.9950008,1.002 16.5000008,1 C17.4480008,0.996 17.9978,2.108 17.9988,3.071 C18.0008,5.362 17.9998,7.653 17.9998,9.944 C17.9998,11.385 18.0008,12.826 17.9988,14.267 C17.9978,15.081 17.4428,15.812 16.6598,15.954 C16.2728,16.024 15.8668,15.993 15.4698,15.993 C11.2108,15.995 6.9518,15.994 2.6928,15.994 C2.3128,15.994 1.9318,16.005 1.5518,15.985 C0.7138,15.942 0.0098,15.175 0.0098,14.322 C0.0098,10.578 0.0238,6.834 -0.000200000001,3.09 C-0.0052,2.277 0.989000088,0.976000009 2.00000009,1.00000001 C2.55200009,1.01200001 2.42800009,1 3.00000009,1 L3.00000009,0.00999999978 L3.99999985,0.00999999978 L3.99999985,1 L13.9999999,1 L13.9999999,0.00999999978 Z" id="Fill-1"></path>
                            <polygon id="Fill-4" points="3 10.0049195 6 10.0049195 6 8 3 8"></polygon>
                            <polygon id="Fill-6" points="7 10.0049195 11 10.0049195 11 8 7 8"></polygon>
                            <polygon id="Fill-7" points="3 12.9735 6 12.9735 6 10.9685805 3 10.9685805"></polygon>
                            <polygon id="Fill-8" points="7 13 11 13 11 11 7 11"></polygon>
                            <polygon id="Fill-9" points="12 12.9785001 15 12.9785001 15 10.9735806 12 10.9735806"></polygon>
                            <polygon id="Fill-10" points="12 10.0049195 15 10.0049195 15 8 12 8"></polygon>
                            <polygon id="Fill-4" points="3 7.00491954 6 7.00491954 6 5 3 5"></polygon>
                            <polygon id="Fill-6" points="7 7.00491954 11 7.00491954 11 5 7 5"></polygon>
                            <polygon id="Fill-10" points="12 7.00491954 15 7.00491954 15 5 12 5"></polygon>
                        </g>
                    </g>
                </g>
            </g>
        </g>
    </g>
</svg>