<?xml version="1.0" standalone="no"?>
<!DOCTYPE svg PUBLIC "-//W3C//DTD SVG 1.1//EN" "http://www.w3.org/Graphics/SVG/1.1/DTD/svg11.dtd">
<!--Generator: Xara Designer (www.xara.com), SVG filter version: 6.0.0.4-->
<svg stroke-width="0.501" stroke-linejoin="bevel" fill-rule="evenodd" xmlns:xlink="http://www.w3.org/1999/xlink" xmlns="http://www.w3.org/2000/svg" version="1.1" overflow="visible" width="12pt" height="12pt" viewBox="0 0 12 12">
 <defs>
	</defs>
 <g id="Document" fill="none" stroke="black" font-family="Times New Roman" font-size="16" transform="scale(1 -1)">
  <g id="Spread" transform="translate(0 -12)">
   <g id="Layer 1">
    <path d="M 5.026,3.033 C 4.961,3.057 4.959,3.058 4.957,3.059 C 4.961,3.057 4.965,3.055 4.913,3.079 C 4.916,3.075 4.866,3.102 4.832,3.126 C 4.782,3.161 4.746,3.191 4.713,3.225 L 2.446,5.494 C 2.327,5.619 2.25,5.8 2.25,6 C 2.25,6.414 2.586,6.75 3,6.75 C 3.226,6.75 3.428,6.649 3.563,6.494 C 3.567,6.489 4.599,5.457 5.248,4.809 C 5.994,5.554 8.441,8.001 8.451,8.01 C 8.588,8.157 8.783,8.25 9,8.25 C 9.414,8.25 9.75,7.914 9.75,7.5 C 9.75,7.283 9.657,7.088 9.51,6.951 C 9.5,6.94 5.811,3.25 5.798,3.238 C 5.796,3.236 5.794,3.234 5.788,3.229 C 5.771,3.21 5.753,3.193 5.729,3.177 C 5.714,3.16 5.697,3.147 5.675,3.133 C 5.655,3.118 5.634,3.105 5.607,3.094 C 5.59,3.08 5.57,3.071 5.546,3.061 C 5.52,3.049 5.492,3.039 5.46,3.033 C 5.443,3.024 5.423,3.019 5.404,3.016 C 5.354,3.005 5.302,3 5.25,3 C 5.148,3 5.052,3.019 5.026,3.033 Z" fill="#ffffff" stroke="none" stroke-width="0.5" stroke-linejoin="miter" stroke-linecap="round" marker-start="none" marker-end="none" stroke-miterlimit="79.8403193612775"/>
   </g>
  </g>
 </g>
</svg>
