<?xml version="1.0" standalone="no"?>
<!DOCTYPE svg PUBLIC "-//W3C//DTD SVG 1.1//EN" "http://www.w3.org/Graphics/SVG/1.1/DTD/svg11.dtd">
<!--Generator: Xara Designer (www.xara.com), SVG filter version: 6.0.0.4-->
<svg stroke-width="0.501" stroke-linejoin="bevel" fill-rule="evenodd" xmlns:xlink="http://www.w3.org/1999/xlink" xmlns="http://www.w3.org/2000/svg" version="1.1" overflow="visible" width="12pt" height="12pt" viewBox="0 0 12 12">
 <defs>
	</defs>
 <g id="Document" fill="none" stroke="black" font-family="Times New Roman" font-size="16" transform="scale(1 -1)">
  <g id="Spread" transform="translate(0 -12)">
   <g id="Layer 1">
    <g id="Group">
     <path d="M 0,0.75 C 0,0.984 0.108,1.194 0.277,1.331 C 0.29,1.347 2.538,3.596 4.939,5.997 C 2.535,8.4 0.285,10.653 0.271,10.672 C 0.105,10.81 0,11.017 0,11.25 C 0,11.664 0.336,12 0.75,12 C 0.984,12 1.194,11.892 1.331,11.723 C 1.347,11.708 3.597,9.459 6,7.058 C 8.402,9.459 10.652,11.708 10.669,11.723 C 10.806,11.892 11.016,12 11.25,12 C 11.664,12 12,11.664 12,11.25 C 12,11.017 11.895,10.81 11.729,10.672 C 11.714,10.653 9.464,8.4 7.06,5.997 C 9.461,3.596 11.709,1.347 11.723,1.331 C 11.892,1.194 12,0.984 12,0.75 C 12,0.336 11.664,0 11.25,0 C 11.017,0 10.81,0.105 10.672,0.271 C 10.652,0.285 8.402,2.534 6,4.936 C 3.597,2.534 1.347,0.285 1.328,0.271 C 1.19,0.105 0.983,0 0.75,0 C 0.336,0 0,0.336 0,0.75 Z" stroke="none" fill="#b5b5b5" stroke-width="0.5" stroke-linejoin="miter" stroke-linecap="round" marker-start="none" marker-end="none" stroke-miterlimit="79.8403193612775"/>
    </g>
   </g>
  </g>
 </g>
</svg>
