<?xml version="1.0" encoding="utf-8"?>
<!-- Generator: Adobe Illustrator 21.0.2, SVG Export Plug-In . SVG Version: 6.00 Build 0)  -->
<svg version="1.1" id="Layer_1" xmlns="http://www.w3.org/2000/svg" xmlns:xlink="http://www.w3.org/1999/xlink" x="0px" y="0px"
	 viewBox="0 0 18 17" style="enable-background:new 0 0 18 17;" xml:space="preserve">
<style type="text/css">
	.st0{fill:#FFFFFF;}
</style>
<path class="st0" d="M17.5,16.2C17.5,16.2,17.5,16.1,17.5,16.2L9.9,8.5c0,0,0,0,0,0l7.6-7.6c0,0,0,0,0,0L16.7,0c0,0,0,0,0,0L9,7.6
	c0,0,0,0,0,0L1.4,0c0,0,0,0,0,0L0.5,0.8c0,0,0,0,0,0l7.6,7.6c0,0,0,0,0,0l-7.6,7.6c0,0,0,0,0,0L1.3,17c0,0,0,0,0,0L9,9.4
	c0,0,0,0,0,0l7.6,7.6c0,0,0,0,0,0L17.5,16.2z"/>
</svg>
