<?xml version="1.0" encoding="UTF-8"?>
<svg width="12px" height="19px" viewBox="0 0 12 19" version="1.1" xmlns="http://www.w3.org/2000/svg" xmlns:xlink="http://www.w3.org/1999/xlink">
    <!-- Generator: Sketch 42 (36781) - http://www.bohemiancoding.com/sketch -->
    <title>?</title>
    <desc>Created with Sketch.</desc>
    <defs></defs>
    <g id="Symbols" stroke="none" stroke-width="1" fill="none" fill-rule="evenodd">
        <g id="Icon-Button/Tentative" transform="translate(-37.000000, -13.000000)" fill="#F7B100">
            <g id="?">
                <g transform="translate(37.000000, 13.000000)">
                    <polygon id="Path" points="5 17 7 17 7 19.0031738 5 19.0031738"></polygon>
                    <path d="M1.66886941,1.76648137 C2.78161462,0.588821236 4.30933616,0 6.25207986,0 C8.04888975,0 9.48768421,0.503744403 10.5685064,1.51124832 C11.6493286,2.51875224 11.994873,3.77923241 11.994873,5.34646073 C11.994873,6.29575331 11.9913558,7.09278917 11.5945983,7.68385814 C11.1978408,8.2749271 10.3974971,9.14360634 9.19354328,10.2899219 C8.31794048,11.1227918 7.75017532,11.828034 7.49023074,12.4056696 C7.23028616,12.9833051 7.00067139,13.8599989 7.00067139,14.9884033 L5.01293945,14.9884033 L5.01293945,11.0458984 C5.01293945,11.0458984 6.11982277,10.1869382 7.16872194,9.17495648 L8.26321996,8.11372433 C8.59157101,7.80923425 8.85607205,7.49131556 9.05673102,7.15995872 C9.42156552,6.57784534 9.60398003,5.97335206 9.60398003,5.34646073 C9.60398003,4.46881287 9.33719881,3.70759911 8.80362836,3.0627966 C8.27005791,2.41799409 7.3876277,2.09559767 6.15631128,2.09559767 C4.63312726,2.09559767 2.99594825,2.40568519 2.99594825,3.76132916 C2.99594825,3.85388184 2.99594825,5.97198486 2.99594825,5.97198486 L1,6 L0.971923828,3.0627966 C0.971923828,3.0627966 1.36176623,2.09150022 1.66886941,1.76648137 Z" id="Path"></path>
                </g>
            </g>
        </g>
    </g>
</svg>