<?xml version="1.0" standalone="no"?>
<!DOCTYPE svg PUBLIC "-//W3C//DTD SVG 1.1//EN" "http://www.w3.org/Graphics/SVG/1.1/DTD/svg11.dtd">
<!--Generator: Xara Designer (www.xara.com), SVG filter version: 6.0.0.4-->
<svg stroke-width="0.501" stroke-linejoin="bevel" fill-rule="evenodd" xmlns:xlink="http://www.w3.org/1999/xlink" xmlns="http://www.w3.org/2000/svg" version="1.1" overflow="visible" width="9.75pt" height="10.5pt" viewBox="0 0 9.75 10.5">
 <defs>
	</defs>
 <g id="Document" fill="none" stroke="black" font-family="Times New Roman" font-size="16" transform="scale(1 -1)">
  <g id="Spread" transform="translate(0 -10.5)">
   <g id="Layer 1">
    <path d="M 0.658,0.663 C -0.22,1.54 -0.22,2.966 0.658,3.843 C 0.675,3.86 2.888,6.074 2.907,6.093 C 3.683,6.87 4.89,6.959 5.765,6.358 L 5.766,6.358 C 5.791,6.342 5.795,6.339 5.8,6.335 L 5.798,6.333 C 5.807,6.326 5.816,6.318 5.825,6.31 C 5.971,6.164 5.971,5.926 5.825,5.78 C 5.711,5.667 5.543,5.641 5.405,5.704 L 5.257,5.791 L 5.257,5.793 C 4.683,6.132 3.93,6.055 3.437,5.562 L 1.187,3.312 C 0.603,2.727 0.603,1.777 1.188,1.193 C 1.774,0.607 2.723,0.608 3.308,1.192 L 4.699,2.582 C 4.73,2.61 4.764,2.632 4.8,2.646 C 4.806,2.651 4.811,2.653 4.817,2.654 C 4.858,2.67 4.899,2.678 4.94,2.678 C 4.946,2.68 4.951,2.68 4.957,2.679 C 5.001,2.678 5.043,2.67 5.084,2.654 C 5.088,2.654 5.092,2.653 5.095,2.651 C 5.139,2.633 5.181,2.606 5.217,2.571 C 5.252,2.535 5.279,2.493 5.297,2.449 C 5.299,2.446 5.3,2.443 5.3,2.44 C 5.316,2.399 5.325,2.355 5.325,2.31 C 5.326,2.305 5.326,2.301 5.324,2.296 C 5.324,2.254 5.316,2.212 5.3,2.169 C 5.299,2.165 5.297,2.16 5.293,2.156 C 5.278,2.118 5.256,2.083 5.227,2.052 L 5.219,2.043 C 5.218,2.042 5.217,2.041 5.217,2.041 C 5.211,2.035 5.205,2.03 5.197,2.022 C 4.575,1.399 3.846,0.671 3.838,0.663 C 2.961,-0.215 1.535,-0.216 0.658,0.663 Z M 3.994,4.146 L 3.993,4.146 C 3.968,4.162 3.964,4.165 3.959,4.169 L 3.961,4.171 C 3.952,4.178 3.943,4.186 3.934,4.194 C 3.788,4.34 3.788,4.578 3.934,4.724 C 4.048,4.837 4.216,4.863 4.354,4.8 L 4.502,4.713 L 4.502,4.711 C 5.076,4.372 5.829,4.449 6.322,4.942 L 8.572,7.192 C 9.156,7.777 9.156,8.727 8.571,9.311 C 7.985,9.897 7.036,9.896 6.451,9.312 L 5.06,7.922 C 5.029,7.894 4.995,7.872 4.959,7.858 C 4.953,7.853 4.948,7.851 4.942,7.85 C 4.901,7.834 4.86,7.826 4.819,7.826 C 4.813,7.824 4.808,7.824 4.802,7.825 C 4.758,7.826 4.716,7.834 4.675,7.85 C 4.671,7.85 4.667,7.851 4.664,7.853 C 4.62,7.871 4.578,7.898 4.542,7.933 C 4.507,7.969 4.48,8.011 4.462,8.055 C 4.46,8.058 4.459,8.061 4.459,8.064 C 4.443,8.105 4.434,8.149 4.434,8.194 C 4.433,8.199 4.433,8.203 4.435,8.208 C 4.435,8.25 4.443,8.292 4.459,8.335 C 4.46,8.339 4.462,8.344 4.466,8.348 C 4.481,8.386 4.503,8.421 4.532,8.452 L 4.54,8.461 C 4.541,8.462 4.542,8.463 4.542,8.463 C 4.548,8.469 4.554,8.474 4.562,8.482 C 5.184,9.105 5.913,9.833 5.921,9.841 C 6.798,10.719 8.224,10.72 9.101,9.841 C 9.979,8.964 9.979,7.538 9.101,6.661 C 9.084,6.644 6.871,4.43 6.852,4.411 C 6.076,3.634 4.869,3.545 3.994,4.146 Z" fill="#00b76f" stroke="none" stroke-width="0.266" stroke-linejoin="miter" stroke-linecap="round" marker-start="none" marker-end="none" stroke-miterlimit="79.8403193612775"/>
   </g>
  </g>
 </g>
</svg>
