<?xml version="1.0" encoding="UTF-8"?>
<svg width="14px" height="15px" viewBox="0 0 14 15" version="1.1" xmlns="http://www.w3.org/2000/svg" xmlns:xlink="http://www.w3.org/1999/xlink">
    <!-- Generator: sketchtool 42 (36781) - http://www.bohemiancoding.com/sketch -->
    <title>3021513C-E6C3-4828-8A0D-9E96815444CB</title>
    <desc>Created with sketchtool.</desc>
    <defs></defs>
    <g id="Desktop" stroke="none" stroke-width="1" fill="none" fill-rule="evenodd">
        <g id="02_Desktop_User-Dropdown" transform="translate(-854.000000, -125.000000)" fill="#DBFEFA">
            <g id="Dropdown" transform="translate(836.000000, 53.000000)">
                <g id="icons" transform="translate(17.000000, 25.000000)">
                    <g id="Log-Out" transform="translate(1.000000, 47.000000)">
                        <polygon id="Fill-1" points="0 0.0001 0 14.9991 11 14.9991 10.9990425 13.9999999 1 13.9999999 1 0.999999983 10.9990425 0.999999983 10.9990423 0.0001"></polygon>
                        <path d="M4.99999999,8.00000001 L4.99999999,7.00000001 L12.0553002,7.00000001 C10.8873002,5.72100001 9.7163,4.3905 8.5833,3.1485 C8.8443,2.8595 9.0833,2.5965 9.3103,2.3455 C10.8723,4.0625 12.4423,5.7875 14.0003,7.4995 C12.4443,9.2095 10.8743,10.9345 9.3123,12.6495 C9.0913,12.4035 8.8543,12.1405 8.6103,11.8695 C9.7333,10.6355 10.8763002,9.29500001 12.0553002,8.00000001 L4.99999999,8.00000001 Z" id="Fill-2"></path>
                    </g>
                </g>
            </g>
        </g>
    </g>
</svg>