<?xml version="1.0" encoding="UTF-8"?>
<svg width="17px" height="16px" viewBox="0 0 17 16" version="1.1" xmlns="http://www.w3.org/2000/svg" xmlns:xlink="http://www.w3.org/1999/xlink">
    <!-- Generator: sketchtool 42 (36781) - http://www.bohemiancoding.com/sketch -->
    <title>6254513F-F551-4EC6-8139-9E6163A52E09</title>
    <desc>Created with sketchtool.</desc>
    <defs></defs>
    <g id="Desktop" stroke="none" stroke-width="1" fill="none" fill-rule="evenodd" opacity="0.75">
        <g id="02_Desktop_User-Dropdown" transform="translate(-427.000000, -23.000000)" fill="#FEFEFE">
            <g id="Header">
                <g id="Menu" transform="translate(282.000000, 11.000000)">
                    <g id="Messages" transform="translate(145.000000, 8.000000)">
                        <g id="Messages_icon" transform="translate(0.000000, 4.000000)">
                            <path d="M1.86653696,1.00293931 C1.3145517,1.00390525 1.00069727,1.31493855 1.00069727,1.8462066 C0.999700909,4.97875623 0.999700909,8.11130586 1.00069727,11.2438555 C1.00169364,11.8041018 1.3145517,12.0948503 1.89842058,12.0948503 C3.16978012,12.0938844 4.44213602,12.0967822 5.71349556,12.0929184 C5.94066639,12.0929184 6.10008451,12.1730916 6.23558991,12.3527568 C6.83739333,13.1428973 7.44816402,13.9253102 8.05793834,14.7086891 C8.35983641,15.0969978 8.64180722,15.0969978 8.94370529,14.7077232 C9.53953053,13.9417313 10.1403376,13.1786371 10.7212174,12.4010539 C10.8945846,12.1701938 11.0908681,12.0880887 11.375828,12.0909866 C12.6103221,12.100646 13.8448162,12.0958163 15.0793103,12.0948503 C15.7060228,12.0948503 15.9989536,11.8089315 15.99995,11.1984562 L15.99995,7.86499068 C15.99995,5.84424019 15.99995,3.82252376 15.9989536,1.80080733 C15.9989536,1.42505593 15.7638119,1.10822698 15.4150848,1.03674728 C15.2506848,1.00197337 15.0773176,1.00100743 14.9079359,1.00100743 C12.771733,0.999075544 10.6345338,1.00004149 8.49833091,1.00004149 C6.2874008,1.00197337 4.07746706,1.00004149 1.86653696,1.00293931 Z M15.2728751,-0.0002 C16.3017708,-0.0002 16.9968878,0.671554492 16.9979085,1.67719879 C17.0009707,4.93659929 16.99995,8.19599978 16.9989293,11.4554003 C16.9979085,12.2980746 16.2742111,13.0016281 15.4045493,13.0046092 C14.1766113,13.0085841 12.9496941,13.012559 11.7227768,13.0006344 C11.5074028,12.9986469 11.3838945,13.0662199 11.2603862,13.2311773 C10.7112336,13.9635487 10.1488114,14.6869766 9.5863893,15.4094108 C9.24138262,15.8545972 8.80042734,16.0970648 8.20840404,15.9629127 C7.87768758,15.8883837 7.62760878,15.6896398 7.426525,15.4282915 C6.8549163,14.6849892 6.28024541,13.9436743 5.71374036,13.1973908 C5.60962592,13.0612513 5.50142856,13.0006344 5.32178011,13.0016281 C4.10200797,13.0095778 2.88325656,13.0095778 1.66348443,13.0046092 C0.685625258,13.0006344 0.00173627719,12.3239113 0.000715547366,11.3669592 C-0.000305182456,8.12246453 -0.000305182456,4.87697611 0.000715547366,1.63248141 C0.00173627719,0.686460287 0.718288612,0.000793719663 1.70635508,-0.0002 L8.52380956,-0.0002 L15.2728751,-0.0002 Z" id="Fill-1"></path>
                            <path d="M12.7171274,5.90875761 C12.2796049,5.8968638 11.9210913,6.22564286 11.9074984,6.65382024 C11.8922063,7.11428084 12.2184367,7.47534312 12.6653044,7.49148473 C13.1113225,7.50762634 13.4740839,7.16780302 13.4919246,6.71498844 C13.5097653,6.28935973 13.1554995,5.92150099 12.7171274,5.90875761 M14.0412,6.7046 C14.0372,7.4386 13.4232,8.0476 12.6912,8.0446 C11.9572,8.0406 11.3482,7.4256 11.3522,6.6926 C11.3572,5.9556 11.9702,5.3476 12.7012,5.3536 C13.4362,5.3586 14.0452,5.9736 14.0412,6.7046" id="Fill-6"></path>
                            <path d="M8.53005761,5.90811327 C8.0875213,5.90641447 7.73756936,6.24787243 7.73077418,6.68955934 C7.7222802,7.12954746 8.0875213,7.49648735 8.53005761,7.49308976 C8.96919633,7.49054157 9.31660007,7.13889084 9.31660007,6.69890272 C9.31575067,6.25466761 8.97259392,5.90981207 8.53005761,5.90811327 M9.8712,6.7026 C9.8742,7.4166 9.2592,8.0386 8.5432,8.0446 C7.8112,8.0516 7.1892,7.4456 7.1792,6.7166 C7.1702,5.9766 7.7842,5.3546 8.5302,5.3526 C9.2582,5.3516 9.8682,5.9656 9.8712,6.7026" id="Fill-4"></path>
                            <path d="M5.14529189,6.70651221 C5.14869046,6.26044992 4.81138241,5.91549509 4.36616976,5.90869795 C3.92095712,5.90105117 3.55221229,6.26044992 3.55391157,6.70056472 C3.55561086,7.13218308 3.91755855,7.49243148 4.35002656,7.49328113 C4.79184063,7.49413077 5.14189332,7.14832629 5.14529189,6.70651221 M5.6921,6.7195 C5.6771,7.4685 5.0651,8.0615 4.3271,8.0445 C3.5821,8.0265 2.9921,7.3975 3.0121,6.6435 C3.0301,5.9385 3.6661,5.3345 4.3701,5.3535 C5.1221,5.3735 5.7071,5.9785 5.6921,6.7195" id="Fill-8"></path>
                        </g>
                    </g>
                </g>
            </g>
        </g>
    </g>
</svg>