<?xml version="1.0" encoding="UTF-8"?>
<svg width="19px" height="5px" viewBox="0 0 19 5" version="1.1" xmlns="http://www.w3.org/2000/svg" xmlns:xlink="http://www.w3.org/1999/xlink">
    <!-- Generator: Sketch 43.1 (39012) - http://www.bohemiancoding.com/sketch -->
    <title>more</title>
    <desc>Created with Sketch.</desc>
    <defs></defs>
    <g id="Symbols" stroke="none" stroke-width="1" fill="none" fill-rule="evenodd" fill-opacity="0.504047781" opacity="0.5">
        <g id="Block_3/v2-Copy" transform="translate(-284.000000, -18.000000)" fill="#87888C">
            <path d="M286.462963,23 C285.102706,23 284,21.8807119 284,20.5 C284,19.1192881 285.102706,18 286.462963,18 C287.82322,18 288.925926,19.1192881 288.925926,20.5 C288.925926,21.8807119 287.82322,23 286.462963,23 Z M293.5,23 C292.139743,23 291.037037,21.8807119 291.037037,20.5 C291.037037,19.1192881 292.139743,18 293.5,18 C294.860257,18 295.962963,19.1192881 295.962963,20.5 C295.962963,21.8807119 294.860257,23 293.5,23 Z M300.537037,23 C299.17678,23 298.074074,21.8807119 298.074074,20.5 C298.074074,19.1192881 299.17678,18 300.537037,18 C301.897294,18 303,19.1192881 303,20.5 C303,21.8807119 301.897294,23 300.537037,23 Z" id="more"></path>
        </g>
    </g>
</svg>