<?xml version="1.0" encoding="UTF-8"?>
<svg width="18px" height="16px" viewBox="0 0 18 16" version="1.1" xmlns="http://www.w3.org/2000/svg" xmlns:xlink="http://www.w3.org/1999/xlink">
    <!-- Generator: sketchtool 42 (36781) - http://www.bohemiancoding.com/sketch -->
    <title>CF568A3A-92CE-482B-9409-BBE69D0368A8</title>
    <desc>Created with sketchtool.</desc>
    <defs></defs>
    <g id="Desktop" stroke="none" stroke-width="1" fill="none" fill-rule="evenodd" opacity="0.75">
        <g id="02_Desktop_User-Dropdown" transform="translate(-569.000000, -23.000000)" fill="#FFFFFF">
            <g id="Header">
                <g id="Menu" transform="translate(282.000000, 11.000000)">
                    <g id="Reports" transform="translate(287.000000, 8.000000)">
                        <g id="Reports_icon" transform="translate(0.000000, 4.000000)">
                            <path d="M17.0000003,10.9999997 L12.0000003,10.9999997 L12.0000003,14.9995 L1.6068,14.9995 C1.27193833,14.9995 0.9998,14.7152895 0.9998,14.3668684 L0.9998,11.6268684 L0.9998,4.25844737 L0.9998,1.63107895 C0.9998,1.28265789 1.27193833,0.9995 1.6068,0.9995 L16.1748,0.9995 C16.50865,0.9995 17.0000003,1.65157891 17.0000003,1.99999996 L17.0000003,4.49999996 L17.0000003,10.9999997 Z M12.9998,11.9995 L16.9999998,11.9995 C16.8017963,13.374413 14.9714642,14.9582118 12.9998,15 L12.9998,11.9995 Z M1.7998,-0.0005 C0.8078,-0.0005 -0.0002,0.82293949 -0.0002,1.8338949 L-0.0002,4.37758917 L-0.0002,11.5113471 L-0.0002,14.164086 C-0.0002,15.1770796 0.8078,15.9995 1.7998,15.9995 L13.3998,15.9995 C15.8688,15.9995 17.8748,14.0020478 17.9798,11.5113471 L17.9998,11.3116019 L17.9998,4.37758917 L17.9998,1.8338949 C17.9998,0.82293949 17.1928,-0.0005 16.1998,-0.0005 L1.7998,-0.0005 Z" id="Fill-1"></path>
                            <polygon id="Fill-4" points="4 3.99999995 14 3.99999995 14 3.001 4 3.001"></polygon>
                            <polygon id="Fill-6" points="4 6 14 6 14 5 4 5"></polygon>
                            <polygon id="Fill-7" points="4 8 9 8 9 7 4 7"></polygon>
                            <polygon id="Fill-8" points="4 10 9 10 9 9 4 9"></polygon>
                        </g>
                    </g>
                </g>
            </g>
        </g>
    </g>
</svg>