<?xml version="1.0" encoding="UTF-8"?>
<svg width="11px" height="15px" viewBox="0 0 11 15" version="1.1" xmlns="http://www.w3.org/2000/svg" xmlns:xlink="http://www.w3.org/1999/xlink">
    <!-- Generator: Sketch 42 (36781) - http://www.bohemiancoding.com/sketch -->
    <title>Reset Password</title>
    <desc>Created with Sketch.</desc>
    <defs></defs>
    <g id="CRUD-user" stroke="none" stroke-width="1" fill="none" fill-rule="evenodd">
        <g id="22.5_Actions" transform="translate(-829.000000, -461.000000)" fill-rule="nonzero" fill="#FFFFFF">
            <g id="text" transform="translate(827.840000, 410.000000)">
                <g id="Group-2">
                    <g id="Group-3">
                        <g id="Group-4">
                            <g id="Reset-Password" transform="translate(1.160000, 51.000000)">
                                <path d="M9.625,4.921875 L8.9375,4.921875 L8.9375,3.515625 C8.9375,1.5703125 7.40208333,0 5.5,0 C3.59791667,0 2.0625,1.5703125 2.0625,3.515625 L2.0625,4.921875 L1.375,4.921875 C0.61875,4.921875 0,5.5546875 0,6.328125 L0,13.359375 C0,14.1328125 0.61875,14.765625 1.375,14.765625 L9.625,14.765625 C10.38125,14.765625 11,14.1328125 11,13.359375 L11,6.328125 C11,5.5546875 10.38125,4.921875 9.625,4.921875 Z M3.36875,3.515625 C3.36875,2.3203125 4.33125,1.3359375 5.5,1.3359375 C6.66875,1.3359375 7.63125,2.3203125 7.63125,3.515625 L7.63125,4.921875 L3.36875,4.921875 L3.36875,3.515625 Z M1.67291667,9.7734375 L2.70416667,9.7734375 C2.70416667,8.203125 3.94166667,6.9375 5.47708333,6.9375 C6.02708333,6.9375 6.53125,7.1015625 6.94375,7.3828125 L6.43958333,7.8984375 C6.14166667,7.734375 5.82083333,7.640625 5.47708333,7.640625 C4.33125,7.640625 3.39166667,8.6015625 3.39166667,9.7734375 L4.42291667,9.7734375 L3.025,11.203125 L1.67291667,9.7734375 Z M8.27291667,9.7734375 C8.27291667,11.34375 7.03541667,12.609375 5.5,12.609375 C4.95,12.609375 4.44583333,12.4453125 4.03333333,12.1640625 L4.5375,11.6484375 C4.83541667,11.8125 5.15625,11.90625 5.5,11.90625 C6.64583333,11.90625 7.58541667,10.9453125 7.58541667,9.7734375 L6.55416667,9.7734375 L7.95208333,8.34375 L9.35,9.7734375 L8.27291667,9.7734375 Z" id="Shape"></path>
                            </g>
                        </g>
                    </g>
                </g>
            </g>
        </g>
    </g>
</svg>