<svg width="33" height="27" viewBox="0 0 33 27" xmlns="http://www.w3.org/2000/svg"><title>8B7C9D59-DA62-4503-85D1-4A41205FDAAA</title><g fill="#FFF" fill-rule="evenodd"><path d="M3.454 19.03c.003-.198-.423-.323-.589-.452-1.157-.896-1.887-2.063-1.93-3.526-.065-2.188-.056-4.38-.027-6.57.013-.943.672-1.667 1.565-1.871.654-.15 1.253-.005 1.792.407.349-.528.81-.869 1.426-.982.612-.113 1.161.06 1.657.4.913-1.2 2.222-1.235 3.193-.505l.123-.144c.557-.661 1.366-.922 2.17-.666.84.267 1.35.849 1.405 1.718.059.88.035 1.764.029 2.646-.005.595-.041 1.19.334 1.71.042.059.056.138.077.209.366 1.22.322 2.469.146 3.698-.232 1.618-1.133 2.838-2.546 3.688-.081.048-.48.163-.481.24-.014.72 0 1.236 0 1.97.1.006.579-.001.642 0 .867.016 1.283.386 1.283 1.246v3.446c0 .812-.463 1.017-1.283 1.02-1.377.003-3.142-.001-4.519 0-1.806 0-3.302.006-5.109 0-.706-.003-1.276.007-1.284-.635a180.35 180.35 0 0 1 0-4.125c.009-.585.556-.737 1.148-.753.117-.004.608-.199.778-.199 0-.68.042-.97 0-1.587-.004-.062 0-.383 0-.383zm4.21-6.862c-1.08.927-2.244.688-2.983-.029-.718.679-1.545.819-2.506.384 0 .687-.017 1.344.008 2 .013.359.058.726.16 1.069.47 1.6 1.956 2.697 3.685 2.723 1.076.016 2.156.055 3.228-.008 2.063-.12 3.727-1.091 4.305-3.04.102-.342.166-.711.161-1.067-.008-.74.018-1.5-.136-2.218-.264-1.234-1.193-1.88-2.483-1.881H7.602c.048.21.07.396.135.567.289.766 1.018 1.252 1.863 1.256.31.001.622-.004.932.003.357.01.533.177.544.52.01.302.008.605.003.907-.006.482-.118.608-.609.647-.622.048-1.127.301-1.518.774a1.893 1.893 0 0 0-.445 1.134c-.003.04-.002.081-.007.12-.036.3-.227.482-.497.476-.285-.006-.468-.207-.476-.523-.036-1.264 1.01-2.532 2.344-2.853.1-.024.187-.095.28-.145l-.06-.113c-.906.066-1.731-.126-2.427-.703zM2.818 22.269v.37c0 .842.006 1.683-.006 2.525-.003.21.066.279.3.278 3.008-.006 6.016-.005 9.024-.006.142 0 .304.032.304-.18-.003-.983-.002-1.965-.002-2.987h-9.62zM10.514 21v-1.897c-1.931.382-3.85.398-5.776-.007V21h5.776zM6.542 9.737c.017-.582.023-.609.555-.818 0-.338.032-.68-.007-1.014-.067-.575-.507-.917-1.093-.898-.533.019-.98.434-.993.98-.02.936-.015 1.87-.002 2.805.006.447.32.825.734.95.468.142.861.004 1.186-.419a3.181 3.181 0 0 1-.38-1.586zM2.24 10.743c.007.585.382 1.041.864 1.055.48.013.877-.421.888-1.017.014-.754.012-1.51-.004-2.264-.012-.553-.41-.98-.865-.975-.472.004-.864.44-.881 1-.012.383-.003.766-.003 1.149 0 .35-.003.701 0 1.052zm10.755-1.32V9.07c0-.67.005-1.34 0-2.009-.005-.59-.371-1.026-.865-1.043-.487-.017-.878.408-.891 1.002-.014.634-.003 1.27-.003 1.838l1.76.566zm-3.138-.472c0-.557.04-1.11-.011-1.652-.055-.57-.493-.908-.975-.848-.46.058-.767.49-.765 1.07.002.464 0 .93 0 1.43h1.75zM22.067 19.096c-.002-.093-.413-.254-.507-.31-1.369-.828-2.274-2.004-2.513-3.57-.207-1.363-.321-2.761.28-4.076.187-.41.272-.805.27-1.248a981.057 981.057 0 0 1-.003-7.402c0-.317.005-.644.08-.95.246-.992 1.184-1.584 2.262-1.462a1.95 1.95 0 0 1 1.701 1.876c.025 1.126.008 2.254.01 3.381v.379c1.143-.47 2.098-.263 2.877.716.5-.347 1.056-.503 1.666-.39.602.113 1.057.449 1.406.962.487-.33 1.002-.533 1.599-.433 1.012.169 1.743.884 1.758 1.903.033 2.19.04 4.381-.025 6.57-.044 1.485-.787 2.664-1.96 3.583-.082.064.094.38.092.471-.013.754 0 1.1 0 1.904.141 0-.012.202.111.206.611.014 1.098.465 1.106 1.064.014 1.138.014 2.276 0 3.414-.008.655-.495 1.077-1.217 1.078-2.215.003-4.43 0-6.646 0-.947 0-1.893 0-2.84-.002-.868-.002-1.432-.226-1.432-1.076V22.27c0-.83.563-1.054 1.407-1.066.063-.003.411-.199.518-.204 0-.734.019-1.204 0-1.904zm1.748-6.308c-.013.034-.024.068-.035.102.089.053.171.13.267.155a3.093 3.093 0 0 1 2.346 2.799c.023.385-.172.621-.473.633-.297.013-.484-.207-.512-.603-.054-.78-.434-1.364-1.128-1.709-.295-.146-.643-.193-.973-.261-.292-.06-.461-.199-.455-.515.007-.338-.004-.676.004-1.014.01-.385.182-.548.58-.554.35-.006.7.006 1.05-.007.941-.035 1.804-.918 1.782-1.848h-.303l-3.087-.001c-1.327 0-2.242.67-2.533 1.967-.243 1.077-.252 2.186.041 3.253.55 1.993 2.253 3.023 4.32 3.128 1.036.052 2.077.016 3.116.007a3.892 3.892 0 0 0 3.709-2.767c.317-1.02.116-2.066.187-3.138-.957.45-1.778.295-2.507-.395-.415.417-.892.645-1.47.65-.576.003-1.05-.235-1.473-.622-.709.616-1.544.795-2.453.74zm-2.361 9.486c0 .98.008 1.925-.006 2.87-.004.238.078.302.337.302 2.988-.008 5.977-.008 8.967 0 .27.002.327-.084.324-.311-.013-.861-.004-1.723-.005-2.585 0-.09-.01-.18-.014-.276h-9.603zm1.2-13.406V8.17l.003-5.729c0-.366-.084-.696-.385-.916-.304-.222-.635-.258-.969-.082-.359.189-.513.51-.513.928.003 2.31.002 4.62.003 6.93 0 .064.012.128.01.114l1.852-.547zm7.115 10.233c-2.17.389-4.295.396-6.418 0V21h6.404c.006-.068.013-.121.013-.174.002-.593.001-1.186.001-1.725zm-2.817-8.045c.34.384.737.508 1.175.382.404-.117.73-.483.736-.89.013-.875.015-1.75-.001-2.625-.01-.495-.45-.902-.95-.926-.569-.027-1.047.3-1.117.818-.044.328-.009.666-.009.995.482.144.534.225.55.685a2.8 2.8 0 0 1-.384 1.56zm2.924-1.421h.002c0 .403-.014.808.004 1.21.025.56.415.923.95.911.502-.011.89-.406.897-.948.012-.754.011-1.507.001-2.261-.008-.583-.385-.963-.933-.968-.53-.006-.9.367-.92.942-.012.37-.001.742-.001 1.114zm-4.115-.693V7.48c0-.547-.368-.972-.89-1.027-.577-.062-1.105.256-1.168.803-.064.551-.014 1.115-.014 1.686h2.072z"/></g></svg>