<svg width="37" height="27" viewBox="0 0 37 27" xmlns="http://www.w3.org/2000/svg"><title>391AE60F-63A0-4F56-9677-785FF7956FE2</title><g fill="#1DB670" fill-rule="evenodd"><path d="M36.034 23.538H1.04a.788.788 0 0 1-.795-.782V.84C.245.408.6.058 1.04.058h34.994c.44 0 .796.35.796.782v21.916a.788.788 0 0 1-.796.782zm-1.13-21.576H2.17v19.673h32.734V1.962zm-8.986 23.48v1.27H10.514v-.635-.635h15.404z"/><path d="M6.663 15.288h6.419v1.27H6.663v-1.27zm7.702 0h1.284v1.27h-1.284v-1.27zm8.344 0h1.284v1.27h-1.284v-1.27zm-5.776 0h4.493v1.27h-4.493v-1.27zm8.344 0h5.776v1.27h-5.776v-1.27zM6.663 17.827h3.851v1.27h-3.85v-1.27zm5.135 0h2.567v1.27h-2.567v-1.27zm3.85 0h1.285v1.27h-1.284v-1.27zm2.568 0h7.702v1.27h-7.702v-1.27zm8.986 0h1.284v1.27h-1.284v-1.27zm2.568 0h1.283v1.27H29.77v-1.27z"/></g></svg>