<svg width="37" height="27" viewBox="0 0 37 27" xmlns="http://www.w3.org/2000/svg"><title>6CBE6520-4F20-4EDC-B3DD-06C382533DE9</title><g fill="#1DB670" fill-rule="evenodd"><path d="M36.034 23.222H1.04c-.44 0-.795-.337-.795-.753V1.365C.245.949.6.61 1.04.61h34.994c.44 0 .796.338.796.754v21.104c0 .416-.356.753-.796.753zm-1.13-20.778H2.17V21.39h32.734V2.444zm-8.986 22.612v1.222H10.514v-.611-.611h15.404z"/><path d="M11.798 14.082c.001-.09-.026-.038-.103-.097-.536-.407-.519-.793-.539-1.457-.03-.995-.014-1.755 0-2.75.006-.429-.057-1.138.357-1.23a.975.975 0 0 1 .83.184c.163-.24.453-.736.739-.788.283-.05.412.14.641.294.423-.545 1.08-.332 1.53 0l.057-.065c.258-.3.633-.42 1.006-.303.39.121.617.885.617.781v1.127s-.126.374.048.61c.019.027.593.306.593.306v1.528c0 .753-.86 1.473-1.515 1.86-.038.022.232.28.232.28s.025.277 0 .61c.071.003-.004.305.025.306.402.007.617.61.617.61v1.223s.048.611-.617.611H11.798c-.642 0-.642-.61-.642-.61s-.008-.701 0-1.223c.004-.266.368-.604.642-.611.054-.002-.079-.306 0-.306 0-.309.02-.33 0-.61-.002-.03 0-.28 0-.28zm2.235-2.892c-.517.36-1.074.267-1.427-.011-.344.263-.74.317-1.2.149 0 .265-.008.52.004.775.006.138.028.28.076.413.225.62.936 1.045 1.764 1.055.515.007 1.032.022 1.545-.002.987-.047 1.784-.423 2.06-1.178.05-.133.08-.276.078-.414-.005-.287.008-.581-.066-.86-.126-.478-.57-.728-1.188-.728h-1.676c.023.081.034.153.065.22.138.296.487.485.892.486.148 0 .297-.001.446.002.17.003.255.068.26.201.005.117.004.234.002.351-.003.187-.057.236-.292.251-.298.019-.54.117-.726.3a.663.663 0 0 0-.214.44c0 .015 0 .03-.003.046-.017.116-.108.187-.238.184-.136-.002-.224-.08-.228-.203-.017-.49.484-.98 1.122-1.105.048-.01.09-.037.134-.056l-.028-.044c-.434.026-.829-.049-1.162-.272zm-2.232 4.699v.143c0 .324.002.648-.003.972-.002.08.03.107.14.107 1.404-.003 2.807-.002 4.21-.003.067 0 .143.013.143-.069v-1.15H11.8zm3.848-.611V14.06a6.897 6.897 0 0 1-3.21-.004v1.222h3.21zM13.552 9.6c.005-.223.006-.233.168-.313 0-.13.01-.26-.002-.389-.02-.22-.154-.35-.332-.343-.161.007-.297.166-.3.375a37.98 37.98 0 0 0 0 1.073c.001.172.096.316.221.364.142.055.261.002.36-.16-.078-.19-.12-.39-.115-.607zm-1.753.944c.003.253.14.449.314.455.175.006.32-.182.323-.438.005-.325.005-.65-.001-.975-.005-.238-.149-.422-.314-.42-.172.002-.315.19-.32.43-.005.166-.002.33-.002.495v.453zm4.491-.767V9.65c0-.24.002-.48 0-.721-.002-.212-.135-.368-.315-.374-.176-.006-.319.146-.323.359-.006.228-.002.456-.002.66l.64.203zm-1.288 0c0-.272.014-.541-.004-.805-.02-.278-.18-.443-.355-.414-.167.028-.279.238-.278.522v.697h.637zM20.784 14.08c-.002-.043-.38.025-.423 0-.635-.376-.763-1.146-.874-1.858V11v-.917c-.006-1.12-.003-2.24 0-3.36v-.48c.114-.45.548-.72 1.048-.664.428.047.88.4.89.838.012.512 0 1.015 0 1.527 0 .053 1.284 0 1.284 0s.36.254.642.306c.28.051.48.045.642.278h.642s1.276.176 1.283.639c.016.995.03 2.06 0 3.055-.02.675-.74 1.44-1.283 1.858-.038.029 0 .24 0 .281-.006.343 0 .246 0 .611.065 0-.057.304 0 .306.283.006.638.033.642.305.006.517.006 1.011 0 1.528-.004.298-.178.593-.512.593-1.028.002-2.054 0-3.081 0h-1.316c-.403-.002-.88-.207-.881-.593v-1.528c0-.377.264-.3.655-.305.029-.002.592.002.642 0 0-.334.008-.88 0-1.198zm.98-2.661l-.015.037c.04.02.076.048.119.057.686.144 1.014.623 1.042 1.02.01.141-.076.227-.21.232-.132.004-.215-.076-.228-.22-.024-.285-.193-.498-.5-.624-.132-.053-.287-.07-.433-.095-.13-.022-.205-.073-.202-.188.003-.123-.002-.246.001-.37.005-.14.081-.2.258-.202.155-.002.311.002.466-.002.419-.013.802-.335.793-.675H21.348c-.59 0-.996.244-1.126.718-.108.392-.112.797.018 1.186.244.728 1.002 1.103 1.92 1.141.46.02.924.006 1.385.003.767-.006 1.422-.41 1.649-1.01.14-.372.051-.753.083-1.144-.426.164-.79.107-1.115-.144a1 1 0 0 1-.653.237 1.046 1.046 0 0 1-.654-.227c-.315.225-.687.29-1.09.27zm-1.62 4.47c0 .377.004.742-.002 1.105-.002.092.036.117.157.117 1.395-.003 2.79-.003 4.185 0 .126 0 .152-.032.15-.12-.005-.332-.001-.664-.001-.995 0-.035-.005-.07-.007-.107h-4.481zm.724-6.316v-.317l.001-2.603c0-.167-.038-.317-.178-.417a.407.407 0 0 0-.45-.037c-.166.086-.237.232-.237.422l.001 3.149c0 .029.006.058.005.052l.858-.249zm3.125 4.483a4.443 4.443 0 0 1-2.567 0v1.222h2.56c.003-.044.006-.078.006-.112v-1.11zm-1.133-3.489c.158.174.342.23.545.174.187-.053.338-.22.34-.404.007-.398.008-.796 0-1.194-.004-.225-.208-.41-.44-.42-.264-.012-.485.136-.518.371-.02.15-.004.303-.004.453.224.065.248.102.255.31.01.25-.043.485-.178.71zm1.776-.498c0 .177-.004.354.002.531.009.246.143.405.327.4.173-.005.306-.178.309-.416.004-.331.003-.662 0-.992-.003-.256-.132-.423-.321-.425-.182-.003-.31.16-.316.413-.004.163 0 .326 0 .489zm-2.569-.291v-.716c0-.268-.113-.476-.273-.503-.177-.03-.339.126-.358.394-.02.27-.005.545-.005.825h.636z"/></g></svg>