<?xml version="1.0" encoding="UTF-8"?>
<svg width="16px" height="16px" viewBox="0 0 16 16" version="1.1" xmlns="http://www.w3.org/2000/svg" xmlns:xlink="http://www.w3.org/1999/xlink">
    <!-- Generator: sketchtool 42 (36781) - http://www.bohemiancoding.com/sketch -->
    <title>F36891E7-8B38-41A0-A369-86B33480D522</title>
    <desc>Created with sketchtool.</desc>
    <defs></defs>
    <g id="Desktop" stroke="none" stroke-width="1" fill="none" fill-rule="evenodd">
        <g id="02_Desktop_User-Dropdown" transform="translate(-853.000000, -78.000000)" fill="#DCFFFA">
            <g id="Dropdown" transform="translate(836.000000, 53.000000)">
                <g id="icons" transform="translate(17.000000, 25.000000)">
                    <g id="Settings">
                        <path d="M5.21334303,12.2535758 C5.26981818,12.2535758 5.32629333,12.2697115 5.37772606,12.2999661 C5.82347636,12.5732655 6.30654061,12.7739539 6.8128,12.8959806 C6.95499636,12.9302691 7.05483636,13.0563297 7.05483636,13.2015515 L7.05483636,14.6184727 C7.05483636,14.7929406 7.19602424,14.93312 7.36948364,14.93312 L8.6300897,14.93312 C8.80354909,14.93312 8.94574545,14.7929406 8.94574545,14.6184727 L8.94574545,13.2015515 C8.94574545,13.0563297 9.04457697,12.9302691 9.18677333,12.8959806 C9.69303273,12.7739539 10.1750885,12.5732655 10.6218473,12.2999661 C10.7468994,12.2243297 10.90624,12.2434909 11.0101139,12.3463564 L12.0125479,13.3477818 C12.1305406,13.4657745 12.339297,13.466783 12.4572897,13.3477818 L13.3487903,12.4562812 C13.470817,12.3332461 13.470817,12.1345745 13.3487903,12.0105309 L12.3463564,11.0101139 C12.2434909,10.90624 12.2243297,10.7458909 12.3009745,10.6208388 C12.5732655,10.1750885 12.7739539,9.69303273 12.8959806,9.18576485 C12.9302691,9.04457697 13.0563297,8.94473697 13.2015515,8.94473697 L14.6184727,8.94473697 C14.7031855,8.94473697 14.7818473,8.91246545 14.8403394,8.85296485 C14.9008485,8.79346424 14.93312,8.71379394 14.93312,8.6300897 L14.93312,7.36948364 C14.93312,7.19501576 14.7919321,7.05382788 14.6184727,7.05382788 L13.2015515,7.05382788 C13.0563297,7.05382788 12.9302691,6.95499636 12.8959806,6.8128 C12.7739539,6.30654061 12.5732655,5.82347636 12.3009745,5.37671758 C12.2243297,5.25267394 12.2434909,5.09232485 12.3463564,4.98945939 L13.3487903,3.98803394 C13.4072824,3.92954182 13.4405624,3.84785455 13.4405624,3.76515879 C13.4405624,3.68145455 13.4072824,3.60077576 13.3487903,3.54228364 L12.4572897,2.65078303 C12.3382885,2.53178182 12.1305406,2.53178182 12.0105309,2.65078303 L11.0101139,3.65220848 C10.90624,3.75608242 10.7468994,3.77524364 10.6208388,3.69960727 C10.176097,3.42630788 9.69404121,3.22662788 9.18677333,3.10359273 C9.04457697,3.07031273 8.94574545,2.94324364 8.94574545,2.79802182 L8.94574545,1.38210909 C8.94574545,1.20764121 8.80354909,1.06645333 8.6300897,1.06645333 L7.36948364,1.06645333 C7.19602424,1.06645333 7.05483636,1.20764121 7.05483636,1.38210909 L7.05483636,2.79802182 C7.05483636,2.94324364 6.95499636,3.07031273 6.8128,3.10359273 C6.30754909,3.22662788 5.82347636,3.42630788 5.37772606,3.69960727 C5.25368242,3.77524364 5.09333333,3.75608242 4.99046788,3.65422545 L3.98904242,2.65179152 C3.86903273,2.5327903 3.66229333,2.5327903 3.54329212,2.65179152 L2.65179152,3.54329212 C2.52875636,3.66531879 2.52875636,3.86600727 2.65179152,3.98904242 L3.65422545,4.99046788 C3.75709091,5.09232485 3.77524364,5.25368242 3.69960727,5.37772606 C3.42731636,5.82347636 3.22662788,6.30754909 3.10460121,6.8128 C3.07031273,6.95499636 2.94324364,7.05483636 2.79802182,7.05483636 L1.38210909,7.05483636 C1.29739636,7.05483636 1.21873455,7.08710788 1.15822545,7.14761697 C1.09973333,7.20610909 1.06645333,7.28477091 1.06645333,7.36948364 L1.06645333,8.6300897 C1.06645333,8.80354909 1.2086497,8.94574545 1.38210909,8.94574545 L2.79802182,8.94574545 C2.94324364,8.94574545 3.07031273,9.04457697 3.10359273,9.18677333 C3.22662788,9.69404121 3.42731636,10.176097 3.69960727,10.6218473 C3.77524364,10.7468994 3.75608242,10.90624 3.65422545,11.0101139 L2.65179152,12.0125479 C2.59229091,12.07104 2.55901091,12.1507103 2.55901091,12.2344145 C2.55901091,12.3171103 2.59229091,12.3987976 2.65179152,12.4572897 L3.54329212,13.3487903 C3.66229333,13.466783 3.87004121,13.466783 3.98904242,13.3487903 L4.99046788,12.3463564 C5.05097697,12.2848388 5.13165576,12.2535758 5.21334303,12.2535758 M8.66645333,15.9997867 L7.33312,15.9997867 C6.78165333,15.9997867 6.33365333,15.55072 6.33365333,15.00032 L6.33365333,13.7597867 C5.90698667,13.6349867 5.49632,13.46432 5.10592,13.24992 L4.22805333,14.1277867 C3.85045333,14.5053867 3.19232,14.5053867 2.81365333,14.1277867 L1.87072,13.18592 C1.68192,12.99712 1.57845333,12.7453867 1.57845333,12.47872 C1.57845333,12.20992 1.68192,11.9592533 1.87072,11.7704533 L2.74965333,10.8925867 C2.53418667,10.50432 2.36352,10.0936533 2.24085333,9.66698667 L1.00032,9.66698667 C0.448853333,9.66698667 -0.000213333334,9.21792 -0.000213333334,8.66645333 L-0.000213333334,7.33312 C-0.000213333334,7.06538667 0.103253333,6.81472 0.292053333,6.62592 C0.48192,6.43712 0.732586667,6.33365333 1.00032,6.33365333 L2.24192,6.33365333 C2.36458667,5.90698667 2.53418667,5.49632 2.74965333,5.10698667 L1.87285333,4.22805333 C1.48245333,3.83765333 1.48245333,3.20405333 1.87285333,2.81365333 L2.81472,1.87178667 C3.19232,1.49418667 3.85152,1.49312 4.22912,1.87178667 L5.10698667,2.74965333 C5.49738667,2.53418667 5.90698667,2.36458667 6.33365333,2.24192 L6.33365333,1.00032 C6.33365333,0.448853333 6.78165333,-0.000213333333 7.33312,-0.000213333333 L8.66645333,-0.000213333333 C9.21792,-0.000213333333 9.66698667,0.448853333 9.66698667,1.00032 L9.66698667,2.24192 C10.0925867,2.36458667 10.50432,2.53525333 10.8925867,2.74965333 L11.7704533,1.87178667 C12.1501867,1.49418667 12.8072533,1.49312 13.18592,1.87178667 L14.1277867,2.81365333 C14.3165867,3.00245333 14.42112,3.25418667 14.42112,3.52085333 C14.42112,3.78752 14.3165867,4.03925333 14.1277867,4.22805333 L13.24992,5.10592 C13.4653867,5.49525333 13.6360533,5.90592 13.7597867,6.33365333 L15.00032,6.33365333 C15.55072,6.33365333 15.9997867,6.78165333 15.9997867,7.33312 L15.9997867,8.66645333 C15.9997867,8.93312 15.89632,9.18592 15.70752,9.37365333 C15.51872,9.56138667 15.2669867,9.66698667 15.00032,9.66698667 L13.7597867,9.66698667 C13.6349867,10.0925867 13.46432,10.50432 13.24992,10.8925867 L14.1277867,11.7704533 C14.5181867,12.16192 14.5181867,12.79552 14.1277867,13.18592 L13.18592,14.1277867 C12.8072533,14.5053867 12.1501867,14.5053867 11.7704533,14.1277867 L10.8925867,13.24992 C10.50432,13.4653867 10.0925867,13.6349867 9.66805333,13.7597867 L9.66805333,15.00032 C9.66698667,15.55072 9.21792,15.9997867 8.66645333,15.9997867" id="Fill-1"></path>
                        <path d="M8,5.33333333 C6.53013333,5.33333333 5.33333333,6.53013333 5.33333333,8 C5.33333333,9.46986667 6.53013333,10.6666667 8,10.6666667 C9.46986667,10.6666667 10.6666667,9.46986667 10.6666667,8 C10.6666667,6.53013333 9.47093333,5.33333333 8,5.33333333 M8,11.7333333 C5.94158933,11.7333333 4.26666667,10.0596053 4.26666667,8 C4.26666667,5.94158933 5.94158933,4.26666667 8,4.26666667 C10.0596053,4.26666667 11.7333333,5.94158933 11.7333333,8 C11.7333333,10.0596053 10.0596053,11.7333333 8,11.7333333" id="Fill-4"></path>
                    </g>
                </g>
            </g>
        </g>
    </g>
</svg>