<?xml version="1.0" encoding="UTF-8"?>
<svg width="16px" height="12px" viewBox="0 0 16 12" version="1.1" xmlns="http://www.w3.org/2000/svg" xmlns:xlink="http://www.w3.org/1999/xlink">
    <!-- Generator: Sketch 42 (36781) - http://www.bohemiancoding.com/sketch -->
    <title>Shape</title>
    <desc>Created with Sketch.</desc>
    <defs></defs>
    <g id="Pop-Up---Accepted-Copy" stroke="none" stroke-width="1" fill="none" fill-rule="evenodd">
        <g id="112_Pop-Up---Accepted_-Assign-Now" transform="translate(-753.000000, -444.000000)" fill-rule="nonzero" fill="#FFFFFF">
            <path d="M768.466787,444 L753.533213,444 C753.238742,444 753,444.273702 753,444.611757 L753,455.388656 C753,455.726504 753.238921,456 753.533213,456 L768.466787,456 C768.761258,456 769,455.726298 769,455.388656 L769,444.611757 C769,444.273496 768.761079,444 768.466787,444 Z M758.508674,450.668683 C759.137348,451.277965 759.568449,451.691097 759.677034,451.784118 C760.281618,452.303059 760.75209,452.37298 761.132674,452.37298 C761.837753,452.37298 762.317933,451.995325 762.540854,451.770299 L763.624539,450.68209 L768.219056,454.947886 L768.216899,455.158474 L753.78364,455.158474 L753.780764,454.947886 L758.508674,450.668683 Z M753.734022,453.700034 L753.734022,446.008113 C753.965753,446.234789 754.24836,446.511378 754.558472,446.814575 C755.782742,448.011894 756.998562,449.200138 757.940584,450.117154 L753.734022,453.700034 Z M764.220674,450.084359 L768.265798,446.024613 L768.265798,453.675696 L764.220674,450.084359 Z M768.265978,444.841733 L768.265978,444.895153 L761.973663,450.942592 C761.702202,451.182468 761.427506,451.298797 761.134112,451.298797 C760.837483,451.298797 760.526652,451.173187 760.220315,450.935785 C759.864539,450.629288 754.854022,445.911791 753.734022,444.856377 L753.734022,444.841526 L768.265978,444.841526 L768.265978,444.841733 Z" id="Shape"></path>
        </g>
    </g>
</svg>