<?xml version="1.0" encoding="utf-8"?>
<!-- Generator: Adobe Illustrator 21.0.2, SVG Export Plug-In . SVG Version: 6.00 Build 0)  -->
<svg version="1.1" id="Layer_1" xmlns="http://www.w3.org/2000/svg" xmlns:xlink="http://www.w3.org/1999/xlink" x="0px" y="0px"
	 viewBox="0 0 13 20" style="enable-background:new 0 0 13 20;" xml:space="preserve">
<style type="text/css">
	.st0{fill:#FFFFFF;}
</style>
<title>Lamp</title>
<desc>Created with Sketch.</desc>
<g id="Symbols">
	<g id="Lamp" transform="translate(0.000000, 1.000000)">
		<g transform="translate(-0.840000, -1.000000)">
			<g id="Group-3" transform="translate(1.000000, 1.062500)">
			</g>
			<path id="Fill-1" class="st0" d="M7.4,12.6c0.5,0,0.9,0,1.4,0c0.1,0,0.2,0,0.2-0.1c0-0.2,0.1-0.4,0.2-0.6
				c0.2-0.6,0.5-1.2,0.9-1.7c0.3-0.4,0.6-0.8,1-1.2c0.9-1.1,1.2-2.4,0.7-3.8c-0.8-2.6-3.7-3.7-6.1-2.7C4,3.1,3.1,4.3,2.9,6
				C2.7,7,3,7.9,3.5,8.7c0.3,0.3,0.5,0.7,0.8,1c0.6,0.7,1.1,1.3,1.3,2.2c0,0.2,0.1,0.4,0.2,0.6c0,0.1,0.1,0.1,0.1,0.1
				C6.4,12.6,6.9,12.6,7.4,12.6L7.4,12.6z M7.9,0c0.3,0.1,0.7,0.1,1,0.2c2.6,0.7,4.3,2.4,4.9,5.1c0.4,1.8-0.1,3.4-1.3,4.8
				c-0.3,0.4-0.6,0.8-0.9,1.1c-0.6,0.7-1,1.5-1.2,2.4c-0.1,0.4-0.2,0.7-0.3,1.1c0,0.1-0.1,0.1-0.2,0.1c-1.6,0-3.2,0-4.8,0
				c-0.1,0-0.2,0-0.2-0.2c-0.1-0.4-0.2-0.8-0.3-1.2c-0.2-0.8-0.6-1.5-1.2-2.2c-0.5-0.5-0.9-1.1-1.3-1.6C0.7,7.9,0.5,6,1.3,4.1
				c0.9-2.1,2.5-3.5,4.7-4C6.3,0.1,6.5,0,6.8,0H7.9z"/>
			<path id="Fill-4" class="st0" d="M7.1,20c-0.3-0.1-0.5-0.2-0.8-0.3c-0.4-0.2-0.6-0.5-0.8-0.9c0-0.1-0.1-0.1-0.2-0.1
				c-0.1,0-0.3,0-0.4,0v-0.8h5v0.8c-0.1,0-0.3,0-0.4,0c-0.1,0-0.2,0-0.2,0.1c-0.3,0.6-0.8,1-1.5,1.2c0,0,0,0,0,0H7.1z"/>
			<polygon id="Fill-7" class="st0" points="4.8,16.8 9.8,16.8 9.8,15.8 4.8,15.8 			"/>
		</g>
	</g>
</g>
</svg>
