<?xml version="1.0" encoding="utf-8"?><svg width="18" height="16" viewBox="0 0 18 16" xmlns="http://www.w3.org/2000/svg"><title>A4C7AB97-55CE-46F5-9C60-41FF8F1069A2</title><g fill="#888792" fill-rule="evenodd"><path d="M3 2.012c-.659 0-.818-.017-1.449 0-.27.008-.465.216-.518.495a2.392 2.392 0 0 0-.031.437C1 5.707 1 8.472 1 11.234v2.991c.002.521.245.772.749.775h11.407c1.063 0 2.125 0 3.187-.004.394-.001.635-.253.651-.66.005-.115.005-.232.005-.347V5.863c0-1.027.002-2.055 0-3.082-.002-.547-.23-.781-.752-.781l-.933.001-.314.011v.932h-1v-.932H4v.932H3v-.932zM14 .01h1V1c.505.001.995.002 1.5 0 .948-.004 1.498 1.108 1.499 2.071.002 2.291 0 4.582 0 6.873 0 1.441.002 2.882 0 4.323-.001.814-.556 1.545-1.34 1.687-.386.07-.792.039-1.19.039-4.258.002-8.517.001-12.776.001-.38 0-.761.011-1.141-.009-.838-.043-1.542-.81-1.542-1.663C.01 10.578.024 6.834 0 3.09-.005 2.277.989.976 2 1c.552.012.428 0 1 0V.01h1V1h10V.01z"/><path d="M3 10.005h3V8H3zm4 0h4V8H7zm-4 2.968h3V10.97H3zM7 13h4v-2H7zm5-.021h3v-2.005h-3zm0-2.974h3V8h-3zm-9-3h3V5H3zm4 0h4V5H7zm5 0h3V5h-3z"/></g></svg>